<svg width="84" height="85" viewBox="0 0 84 85" fill="none" xmlns="http://www.w3.org/2000/svg">
<path d="M76.2613 43.1899L76.1248 44.1959L78.8444 44.5649L80.0126 45.9956L75.5564 48.3859L75.4004 49.5356L80.6111 46.7298L83.2261 49.9443L83.3011 49.3915L79.5077 44.6549L83.8635 45.2458L84 44.2397L76.2613 43.1899Z" fill="white"/>
<path d="M75.1573 57.2466L72.6226 57.3093L72.1899 58.3013L80.8023 58.0902L81.0253 57.5789L75.1875 51.4294L74.9823 51.8998L76.6963 53.7186L75.1573 57.2466ZM75.7112 57.2326L77.0717 54.1137L79.8755 57.0895L79.8577 57.1304L75.7112 57.2326Z" fill="white"/>
<path d="M74.897 68.1967L74.2406 67.6253L74.4897 67.3392C74.8413 66.9353 75.0894 66.5201 75.2339 66.0936C75.3735 65.6728 75.4295 65.263 75.4019 64.8642C75.3694 64.4711 75.265 64.104 75.0885 63.763C74.912 63.422 74.6807 63.127 74.3947 62.8779C74.1759 62.6874 73.898 62.5195 73.5611 62.3741C73.2249 62.2392 72.8567 62.175 72.4565 62.1816C72.0515 62.1938 71.6242 62.3051 71.1749 62.5154C70.7255 62.7257 70.2786 63.0861 69.8342 63.5966L69.7389 63.706L69.0069 63.0687L68.3402 63.8344L69.0723 64.4717L68.9697 64.5895C68.5253 65.1 68.2323 65.5894 68.0907 66.0579C67.9443 66.5319 67.8929 66.9704 67.9366 67.3733C67.9802 67.7762 68.0945 68.1321 68.2793 68.4409C68.4648 68.7602 68.6669 69.0151 68.8857 69.2055C69.1718 69.4546 69.4983 69.6403 69.8652 69.7625C70.2273 69.8903 70.6077 69.9405 71.0064 69.9129C71.4003 69.8909 71.7961 69.7818 72.1937 69.5856C72.5913 69.3894 72.966 69.0894 73.3176 68.6855L73.574 68.391L74.2303 68.9624L74.897 68.1967ZM70.0755 63.999L70.1195 63.9485C70.3685 63.6625 70.6433 63.4431 70.9438 63.2905C71.2499 63.1428 71.5603 63.0581 71.8751 63.0363C72.1955 63.0194 72.5123 63.0634 72.8253 63.1683C73.1334 63.2788 73.4221 63.4512 73.6914 63.6857C73.9158 63.881 74.1136 64.1125 74.285 64.38C74.4515 64.6532 74.5611 64.9408 74.6136 65.243C74.6612 65.5507 74.6386 65.8712 74.5457 66.2045C74.4583 66.5427 74.2706 66.8772 73.9825 67.2082L73.8872 67.3176L70.0755 63.999ZM69.4089 64.7647L73.2206 68.0833L73.118 68.2011C72.8299 68.5321 72.5243 68.7641 72.2014 68.8971C71.8841 69.035 71.5722 69.0988 71.2657 69.0884C70.9543 69.0835 70.6544 69.0147 70.3658 68.8817C70.0723 68.7544 69.8133 68.5931 69.589 68.3977C69.3197 68.1633 69.1116 67.8983 68.9646 67.6027C68.8128 67.3127 68.7231 67.0079 68.6958 66.6882C68.674 66.3734 68.7152 66.0542 68.8193 65.7307C68.9291 65.4121 69.1085 65.1097 69.3576 64.8236L69.4089 64.7647Z" fill="white"/>
<path d="M67.3906 75.6028L63.1983 69.0138L58.9437 71.7209L59.2731 72.2386L62.6711 70.0765L64.4139 72.8157L61.496 74.6723L61.7835 75.1241L64.7014 73.2675L66.2047 75.6301L62.8067 77.7921L63.1361 78.3098L67.3906 75.6028Z" fill="white"/>
<path d="M47.1812 83.5523L53.7988 82.4729L52.5416 74.7652L51.5396 74.9286L52.698 82.0307L48.0844 82.7833L46.926 75.6811L45.924 75.8446L47.1812 83.5523Z" fill="white"/>
<path d="M37.018 77.8314L36.2749 75.4072L35.2031 75.2576L37.7257 83.495L38.2782 83.5721L42.6284 76.2939L42.1201 76.223L40.8301 78.3635L37.018 77.8314ZM37.1806 78.361L40.5507 78.8314L38.4399 82.333L38.3957 82.3268L37.1806 78.361Z" fill="white"/>
<path d="M30.2361 77.1839C30.0788 77.0601 29.9048 76.9372 29.7142 76.8153C29.5208 76.7002 29.3009 76.5901 29.0547 76.4849C28.6375 76.3066 28.2433 76.2069 27.8722 76.1858C27.501 76.1647 27.1671 76.208 26.8703 76.3157C26.5638 76.4273 26.3002 76.5897 26.0797 76.8029C25.8563 77.0228 25.6803 77.2833 25.5517 77.5842C25.4289 77.8714 25.3599 78.1655 25.3446 78.4663C25.3263 78.774 25.3754 79.0659 25.4919 79.3422C25.5987 79.6224 25.7742 79.8834 26.0186 80.1254C26.263 80.3673 26.5836 80.5731 26.9803 80.7426L29.3809 81.7686L32.4499 74.5873L31.5164 74.1883L30.2361 77.1839ZM28.6402 80.9182L27.563 80.4578C27.2758 80.3351 27.0446 80.1756 26.8696 79.9795C26.6946 79.7834 26.5718 79.5691 26.5013 79.3368C26.4278 79.1112 26.4022 78.8778 26.4244 78.6366C26.4368 78.3993 26.4869 78.178 26.5746 77.9728C26.6594 77.7745 26.7798 77.5874 26.9359 77.4114C27.0822 77.2394 27.2622 77.102 27.476 76.9992C27.6898 76.8964 27.928 76.8405 28.1907 76.8315C28.4534 76.8224 28.7387 76.8837 29.0464 77.0152C29.2585 77.1058 29.4505 77.1959 29.6224 77.2856C29.7915 77.3821 29.9361 77.4884 30.0564 77.6045L28.6402 80.9182Z" fill="white"/>
<path d="M24.7108 71.0795L23.9144 70.4498L22.2123 72.6027L20.3861 72.8797L20.5976 67.8273L19.6875 67.1077L19.4495 73.021L15.3514 73.6351L15.789 73.9811L21.7971 73.1278L19.0708 76.5759L19.8672 77.2056L24.7108 71.0795Z" fill="white"/>
<path d="M14.9964 61.9385L14.506 61.0496L12.1029 62.3752L10.3119 61.9234L12.4636 57.3472L11.9032 56.3312L9.39369 61.6909L5.37759 60.67L5.64703 61.1584L11.5167 62.6985L7.66782 64.8217L8.1582 65.7107L14.9964 61.9385Z" fill="white"/>
<path d="M7.50169 50.0047L9.50052 48.4447L9.25736 47.3902L2.46468 52.689L2.59002 53.2325L10.9419 54.6957L10.8266 54.1956L8.36654 53.7553L7.50169 50.0047ZM7.06512 50.3458L7.8297 53.6616L3.80509 52.9409L3.79507 52.8974L7.06512 50.3458Z" fill="white"/>
<path d="M1.17242 41.0561L2.04004 41.1232L2.01081 41.5014C1.96953 42.0353 2.01813 42.5165 2.15659 42.9449C2.29562 43.366 2.49514 43.7283 2.75515 44.0318C3.01573 44.328 3.31855 44.5603 3.66361 44.7287C4.00866 44.8971 4.37029 44.9959 4.74849 45.0252C5.03769 45.0475 5.36086 45.0166 5.71799 44.9323C6.06828 44.84 6.40206 44.6718 6.71932 44.4278C7.03715 44.1763 7.31366 43.8322 7.54885 43.3953C7.78403 42.9584 7.92771 42.4026 7.97987 41.7278L7.99105 41.5832L8.95879 41.658L9.03703 40.6457L8.0693 40.5709L8.08133 40.4152C8.1335 39.7404 8.07666 39.1728 7.91084 38.7124C7.74558 38.2445 7.52525 37.862 7.24983 37.5647C6.97442 37.2674 6.67045 37.0499 6.33793 36.9123C5.99857 36.7667 5.68429 36.6827 5.39508 36.6604C5.01689 36.6311 4.64408 36.6769 4.27667 36.7977C3.90983 36.9111 3.57462 37.0978 3.27105 37.3578C2.96805 37.6104 2.7155 37.934 2.51342 38.3287C2.31133 38.7234 2.18965 39.1877 2.14838 39.7216L2.11829 40.1109L1.25066 40.0439L1.17242 41.0561ZM7.54612 41.5488L7.54096 41.6155C7.51172 41.9937 7.42204 42.3337 7.27189 42.6354C7.11434 42.9365 6.91573 43.1897 6.67606 43.395C6.42898 43.5997 6.14855 43.7533 5.83477 43.8559C5.52156 43.951 5.18698 43.9848 4.83103 43.9573C4.53441 43.9344 4.23751 43.8667 3.94035 43.7542C3.64377 43.6343 3.38428 43.4688 3.16188 43.2576C2.94006 43.0391 2.76703 42.7683 2.64279 42.4454C2.51114 42.1219 2.46222 41.7414 2.49605 41.3039L2.50722 41.1593L7.54612 41.5488ZM7.62436 40.5365L2.58547 40.147L2.59751 39.9913C2.63133 39.5538 2.73814 39.1853 2.91794 38.8859C3.09033 38.5859 3.30262 38.3487 3.55482 38.1742C3.8076 37.9924 4.08945 37.8687 4.40037 37.8032C4.71186 37.7303 5.01591 37.7053 5.31254 37.7282C5.66849 37.7557 5.99361 37.8443 6.2879 37.9939C6.58277 38.136 6.83655 38.3272 7.04923 38.5674C7.2545 38.8071 7.41184 39.0878 7.52125 39.4096C7.62324 39.7308 7.65961 40.0805 7.63038 40.4587L7.62436 40.5365Z" fill="white"/>
<path d="M2.76367 30.644L10.0547 33.4424L11.8616 28.7345L11.2888 28.5146L9.84562 32.2747L6.81463 31.1114L8.0539 27.8825L7.55394 27.6906L6.31468 30.9195L3.70032 29.9161L5.14347 26.156L4.5706 25.9361L2.76367 30.644Z" fill="white"/>
<path d="M14.2792 12.1782L9.60742 16.9878L15.2093 22.4292L15.9167 21.7009L10.755 16.6871L14.012 13.334L19.1737 18.3478L19.8811 17.6196L14.2792 12.1782Z" fill="white"/>
<path d="M25.6226 10.8286L27.6705 12.3236L28.6181 11.8009L21.6613 6.71946L21.1728 6.9889L22.0534 15.4222L22.5028 15.1743L22.2523 12.6877L25.6226 10.8286ZM25.1749 10.5021L22.1954 12.1457L21.7861 8.07762L21.8252 8.05607L25.1749 10.5021Z" fill="white"/>
<path d="M31.3686 7.27128C31.5688 7.27627 31.7817 7.27053 32.0073 7.25406C32.2311 7.23035 32.4732 7.18693 32.7334 7.12379C33.1743 7.01681 33.5497 6.86066 33.8596 6.65535C34.1695 6.45005 34.411 6.21541 34.5842 5.95142C34.7629 5.67846 34.8768 5.39062 34.9258 5.08789C34.973 4.77794 34.9581 4.46395 34.8809 4.14592C34.8072 3.84235 34.6865 3.5655 34.5186 3.31539C34.349 3.05806 34.1349 2.85363 33.8762 2.70211C33.6229 2.5416 33.326 2.43762 32.9854 2.39016C32.6448 2.3427 32.2648 2.36983 31.8456 2.47156L29.3086 3.08716L31.1501 10.6765L32.1368 10.4371L31.3686 7.27128ZM30.411 3.3248L31.5494 3.04857C31.8529 2.97491 32.1335 2.96423 32.3911 3.01652C32.6487 3.06882 32.8754 3.1669 33.071 3.31077C33.2649 3.44741 33.4251 3.619 33.5518 3.82553C33.6839 4.02307 33.7763 4.23026 33.8289 4.4471C33.8798 4.65671 33.8954 4.87871 33.8757 5.11309C33.8615 5.33848 33.7996 5.55633 33.6899 5.76663C33.5802 5.97694 33.4228 6.16436 33.2178 6.3289C33.0129 6.49344 32.7477 6.61518 32.4225 6.6941C32.1984 6.74847 31.9907 6.79123 31.7992 6.82237C31.606 6.84629 31.4265 6.84775 31.2607 6.82676L30.411 3.3248Z" fill="white"/>
<path d="M39.673 8.79318L40.6877 8.82452L40.7725 6.08131L42.0742 4.77093L44.9141 8.95506L46.0738 8.99088L42.7424 4.09953L45.6681 1.16503L45.1105 1.14781L40.7931 5.41224L40.9288 1.01865L39.9141 0.987305L39.673 8.79318Z" fill="white"/>
<path d="M52.9399 10.3063L53.8628 10.7295L55.0068 8.23477L56.7155 7.53321L57.7062 12.492L58.7609 12.9757L57.592 7.17419L61.4281 5.6072L60.9211 5.37467L55.2858 7.6263L57.1182 3.63072L56.1953 3.20752L52.9399 10.3063Z" fill="white"/>
<path d="M66.0733 15.4189L65.3987 17.863L66.2226 18.5647L68.517 10.2608L68.0923 9.89917L60.5147 13.7038L60.9054 14.0365L63.143 12.9233L66.0733 15.4189ZM66.2205 14.8847L63.6299 12.6785L67.2907 10.8577L67.3246 10.8866L66.2205 14.8847Z" fill="white"/>
<path d="M76.4884 18.777L75.7525 19.2415L75.5501 18.9207C75.2642 18.4678 74.9378 18.1109 74.5709 17.85C74.2079 17.5954 73.8315 17.424 73.4416 17.3358C73.0557 17.2539 72.6741 17.2485 72.2968 17.3195C71.9194 17.3906 71.5704 17.5273 71.2496 17.7298C71.0043 17.8846 70.7636 18.1025 70.5275 18.3834C70.3017 18.6666 70.1345 19.0008 70.0258 19.3861C69.9211 19.7776 69.9049 20.2188 69.9772 20.7096C70.0495 21.2005 70.2663 21.7321 70.6275 22.3045L70.7049 22.4271L69.8841 22.9451L70.426 23.8037L71.2468 23.2857L71.3302 23.4177C71.6914 23.9901 72.076 24.4114 72.484 24.6816C72.896 24.9581 73.3012 25.1333 73.6997 25.2073C74.0981 25.2812 74.4718 25.274 74.8207 25.1858C75.1798 25.0999 75.482 24.9795 75.7274 24.8247C76.0481 24.6222 76.3198 24.3628 76.5423 24.0465C76.7688 23.7364 76.9261 23.3865 77.0143 22.9966C77.1064 22.613 77.1156 22.2026 77.042 21.7654C76.9683 21.3282 76.7886 20.8831 76.5028 20.4302L76.2944 20.1L77.0303 19.6356L76.4884 18.777ZM71.0823 22.1889L71.0466 22.1323C70.8442 21.8115 70.713 21.4853 70.6532 21.1537C70.5997 20.818 70.6078 20.4963 70.6774 20.1886C70.7533 19.8768 70.8864 19.5861 71.0768 19.3164C71.2712 19.053 71.5193 18.826 71.8212 18.6355C72.0728 18.4767 72.3514 18.3537 72.6569 18.2664C72.9664 18.1854 73.2734 18.1632 73.5778 18.1997C73.8863 18.2425 74.1868 18.3563 74.4793 18.541C74.7781 18.7219 75.0446 18.9978 75.2788 19.3689L75.3562 19.4916L71.0823 22.1889ZM71.6242 23.0475L75.8981 20.3501L75.9815 20.4822C76.2157 20.8533 76.3501 21.2126 76.3847 21.5601C76.4257 21.9037 76.3971 22.2208 76.299 22.5113C76.2049 22.8082 76.0528 23.0757 75.8425 23.314C75.6362 23.5585 75.4073 23.7601 75.1557 23.9189C74.8538 24.1095 74.5402 24.2327 74.2148 24.2885C73.8934 24.3506 73.5757 24.3488 73.2616 24.2832C72.9538 24.2136 72.66 24.0824 72.38 23.8897C72.1064 23.693 71.8683 23.4343 71.6659 23.1135L71.6242 23.0475Z" fill="white"/>
<path d="M81.4805 28.1882L73.9585 30.288L75.3143 35.1451L75.9053 34.9801L74.8224 31.1009L77.9494 30.228L78.8794 33.5592L79.3951 33.4152L78.4652 30.084L81.1624 29.3311L82.2453 33.2103L82.8363 33.0453L81.4805 28.1882Z" fill="white"/>
<path d="M41.8047 52.2824C41.9999 52.4777 42.3165 52.4777 42.5118 52.2824L45.6937 49.1004C45.889 48.9052 45.889 48.5886 45.6937 48.3933C45.4985 48.198 45.1819 48.198 44.9866 48.3933L42.1582 51.2217L39.3298 48.3933C39.1345 48.198 38.8179 48.198 38.6227 48.3933C38.4274 48.5886 38.4274 48.9052 38.6227 49.1004L41.8047 52.2824ZM41.6582 33.2288L41.6582 51.9288L42.6582 51.9288L42.6582 33.2288L41.6582 33.2288Z" fill="white"/>
</svg>
