<svg width="276" height="280" viewBox="0 0 276 280" fill="none" xmlns="http://www.w3.org/2000/svg">
<ellipse cx="138" cy="144.5" rx="96" ry="89.5" transform="rotate(54.2376 138 144.5)" fill="#3D7096"/>
<path d="M70.4333 141.624C69.6379 141.624 68.9294 141.487 68.308 141.214C67.6901 140.937 67.2018 140.557 66.8431 140.074C66.488 139.587 66.3052 139.026 66.2945 138.39H68.6169C68.6311 138.657 68.7181 138.891 68.878 139.094C69.0413 139.292 69.2579 139.447 69.5278 139.557C69.7977 139.667 70.1013 139.722 70.4387 139.722C70.7902 139.722 71.101 139.66 71.3708 139.536C71.6407 139.411 71.852 139.239 72.0047 139.019C72.1574 138.799 72.2338 138.545 72.2338 138.257C72.2338 137.966 72.1521 137.709 71.9887 137.485C71.8289 137.258 71.5981 137.08 71.2963 136.952C70.998 136.824 70.6429 136.76 70.2309 136.76H69.2135V135.067H70.2309C70.5789 135.067 70.8861 135.006 71.1525 134.885C71.4223 134.765 71.6319 134.598 71.781 134.385C71.9302 134.168 72.0047 133.916 72.0047 133.628C72.0047 133.355 71.939 133.115 71.8076 132.909C71.6798 132.7 71.4987 132.536 71.2643 132.419C71.0335 132.302 70.7636 132.243 70.4547 132.243C70.1422 132.243 69.8563 132.3 69.5971 132.414C69.3378 132.524 69.1301 132.682 68.9738 132.888C68.8176 133.094 68.7341 133.335 68.7235 133.612H66.5129C66.5235 132.984 66.7029 132.43 67.0509 131.95C67.3989 131.471 67.8677 131.096 68.4571 130.827C69.0502 130.553 69.7196 130.416 70.4653 130.416C71.2181 130.416 71.8769 130.553 72.4415 130.827C73.0061 131.1 73.4447 131.469 73.7572 131.934C74.0733 132.396 74.2295 132.915 74.226 133.49C74.2295 134.101 74.0395 134.61 73.656 135.019C73.276 135.427 72.7806 135.686 72.1699 135.796V135.882C72.9724 135.985 73.5832 136.263 74.0022 136.718C74.4248 137.169 74.6343 137.733 74.6308 138.412C74.6343 139.033 74.455 139.585 74.0928 140.068C73.7341 140.551 73.2387 140.931 72.6066 141.208C71.9745 141.485 71.2501 141.624 70.4333 141.624ZM78.983 141.475H76.5114L80.2774 130.566H83.2497L87.0103 141.475H84.5387L81.8061 133.058H81.7209L78.983 141.475ZM78.8285 137.187H84.6666V138.987H78.8285V137.187ZM89.0734 141.475V130.566H96.3123V132.467H91.3798V134.598H93.1536C94.0165 134.598 94.7605 134.738 95.3855 135.019C96.014 135.296 96.4988 135.688 96.8397 136.196C97.1806 136.704 97.3511 137.302 97.3511 137.991C97.3511 138.676 97.1806 139.282 96.8397 139.807C96.4988 140.329 96.014 140.738 95.3855 141.032C94.7605 141.327 94.0165 141.475 93.1536 141.475H89.0734ZM91.3798 139.621H93.1536C93.5655 139.621 93.9136 139.546 94.1976 139.397C94.4817 139.244 94.6966 139.044 94.8422 138.795C94.9913 138.543 95.0659 138.268 95.0659 137.97C95.0659 137.536 94.9008 137.171 94.5705 136.872C94.2438 136.57 93.7715 136.42 93.1536 136.42H91.3798V139.621ZM99.5939 141.475V130.566H103.898C104.725 130.566 105.43 130.724 106.013 131.04C106.595 131.352 107.039 131.787 107.344 132.345C107.653 132.899 107.808 133.538 107.808 134.262C107.808 134.987 107.651 135.626 107.339 136.18C107.026 136.734 106.574 137.165 105.981 137.474C105.391 137.783 104.677 137.938 103.839 137.938H101.096V136.089H103.466C103.91 136.089 104.276 136.013 104.564 135.86C104.855 135.704 105.071 135.489 105.214 135.216C105.359 134.939 105.432 134.621 105.432 134.262C105.432 133.9 105.359 133.584 105.214 133.314C105.071 133.041 104.855 132.829 104.564 132.68C104.272 132.528 103.903 132.451 103.456 132.451H101.9V141.475H99.5939ZM120.081 136.02C120.081 137.21 119.855 138.222 119.404 139.056C118.957 139.891 118.346 140.528 117.572 140.969C116.801 141.405 115.935 141.624 114.972 141.624C114.003 141.624 113.133 141.404 112.362 140.963C111.592 140.523 110.983 139.885 110.535 139.051C110.088 138.216 109.864 137.206 109.864 136.02C109.864 134.83 110.088 133.818 110.535 132.984C110.983 132.149 111.592 131.514 112.362 131.077C113.133 130.637 114.003 130.416 114.972 130.416C115.935 130.416 116.801 130.637 117.572 131.077C118.346 131.514 118.957 132.149 119.404 132.984C119.855 133.818 120.081 134.83 120.081 136.02ZM117.742 136.02C117.742 135.249 117.627 134.6 117.396 134.07C117.169 133.541 116.847 133.14 116.432 132.867C116.016 132.593 115.53 132.456 114.972 132.456C114.415 132.456 113.928 132.593 113.513 132.867C113.097 133.14 112.774 133.541 112.543 134.07C112.316 134.6 112.202 135.249 112.202 136.02C112.202 136.791 112.316 137.441 112.543 137.97C112.774 138.499 113.097 138.9 113.513 139.173C113.928 139.447 114.415 139.584 114.972 139.584C115.53 139.584 116.016 139.447 116.432 139.173C116.847 138.9 117.169 138.499 117.396 137.97C117.627 137.441 117.742 136.791 117.742 136.02ZM122.539 141.475V130.566H124.846V135.067H129.528V130.566H131.829V141.475H129.528V136.968H124.846V141.475H122.539ZM134.481 130.566H136.782V137.426H136.872L141.586 130.566H143.605V141.475H141.299V134.608H141.219L136.478 141.475H134.481V130.566ZM146.261 141.475V130.566H150.565C151.392 130.566 152.097 130.724 152.68 131.04C153.262 131.352 153.706 131.787 154.011 132.345C154.32 132.899 154.475 133.538 154.475 134.262C154.475 134.987 154.318 135.626 154.006 136.18C153.693 136.734 153.241 137.165 152.648 137.474C152.058 137.783 151.344 137.938 150.506 137.938H147.763V136.089H150.133C150.577 136.089 150.943 136.013 151.231 135.86C151.522 135.704 151.738 135.489 151.881 135.216C152.026 134.939 152.099 134.621 152.099 134.262C152.099 133.9 152.026 133.584 151.881 133.314C151.738 133.041 151.522 132.829 151.231 132.68C150.939 132.528 150.57 132.451 150.123 132.451H148.567V141.475H146.261ZM166.748 136.02C166.748 137.21 166.522 138.222 166.071 139.056C165.624 139.891 165.013 140.528 164.239 140.969C163.468 141.405 162.602 141.624 161.639 141.624C160.67 141.624 159.8 141.404 159.029 140.963C158.259 140.523 157.65 139.885 157.202 139.051C156.755 138.216 156.531 137.206 156.531 136.02C156.531 134.83 156.755 133.818 157.202 132.984C157.65 132.149 158.259 131.514 159.029 131.077C159.8 130.637 160.67 130.416 161.639 130.416C162.602 130.416 163.468 130.637 164.239 131.077C165.013 131.514 165.624 132.149 166.071 132.984C166.522 133.818 166.748 134.83 166.748 136.02ZM164.409 136.02C164.409 135.249 164.294 134.6 164.063 134.07C163.836 133.541 163.514 133.14 163.099 132.867C162.683 132.593 162.197 132.456 161.639 132.456C161.082 132.456 160.595 132.593 160.18 132.867C159.764 133.14 159.441 133.541 159.21 134.07C158.983 134.6 158.869 135.249 158.869 136.02C158.869 136.791 158.983 137.441 159.21 137.97C159.441 138.499 159.764 138.9 160.18 139.173C160.595 139.447 161.082 139.584 161.639 139.584C162.197 139.584 162.683 139.447 163.099 139.173C163.514 138.9 163.836 138.499 164.063 137.97C164.294 137.441 164.409 136.791 164.409 136.02ZM169.206 141.475V130.566H173.574C174.377 130.566 175.046 130.684 175.582 130.922C176.118 131.16 176.522 131.491 176.791 131.913C177.061 132.332 177.196 132.815 177.196 133.362C177.196 133.788 177.111 134.163 176.941 134.486C176.77 134.806 176.536 135.068 176.237 135.274C175.943 135.477 175.605 135.621 175.225 135.706V135.812C175.641 135.83 176.03 135.947 176.392 136.164C176.758 136.381 177.054 136.684 177.281 137.075C177.509 137.462 177.622 137.923 177.622 138.46C177.622 139.039 177.479 139.555 177.191 140.01C176.907 140.461 176.486 140.818 175.928 141.08C175.371 141.343 174.684 141.475 173.867 141.475H169.206ZM171.513 139.589H173.393C174.036 139.589 174.504 139.466 174.799 139.221C175.094 138.973 175.241 138.643 175.241 138.231C175.241 137.929 175.169 137.662 175.023 137.432C174.877 137.201 174.67 137.02 174.4 136.888C174.133 136.757 173.816 136.691 173.446 136.691H171.513V139.589ZM171.513 135.131H173.222C173.539 135.131 173.819 135.075 174.064 134.965C174.313 134.852 174.508 134.692 174.65 134.486C174.796 134.28 174.868 134.033 174.868 133.746C174.868 133.351 174.728 133.034 174.448 132.792C174.171 132.551 173.776 132.43 173.265 132.43H171.513V135.131ZM181.753 141.475H179.282L183.048 130.566H186.02L189.781 141.475H187.309L184.577 133.058H184.491L181.753 141.475ZM181.599 137.187H187.437V138.987H181.599V137.187ZM190.095 132.467V130.566H199.055V132.467H195.715V141.475H193.435V132.467H190.095ZM202.798 134.598H205.398C206.264 134.598 207.01 134.738 207.635 135.019C208.264 135.296 208.748 135.688 209.089 136.196C209.43 136.704 209.599 137.302 209.595 137.991C209.599 138.676 209.43 139.282 209.089 139.807C208.748 140.329 208.264 140.738 207.635 141.032C207.01 141.327 206.264 141.475 205.398 141.475H201.323V130.566H203.624V139.621H205.398C205.813 139.621 206.163 139.546 206.447 139.397C206.731 139.244 206.946 139.044 207.092 138.795C207.241 138.543 207.314 138.268 207.31 137.97C207.314 137.536 207.15 137.171 206.82 136.872C206.493 136.57 206.019 136.42 205.398 136.42H202.798V134.598Z" fill="white"/>
<path d="M33.2454 139.785C33.2454 190.475 80.0823 231.675 138 231.675C195.917 231.675 242.754 190.475 242.754 139.785C242.754 89.0947 195.917 47.895 138 47.895C80.0823 47.895 33.2454 89.0947 33.2454 139.785Z" stroke="white"/>
<path d="M71.1306 220.718C109.978 252.828 171.453 242.761 208.427 198.028C245.4 153.296 243.717 91.0249 204.87 58.9154C166.023 26.806 104.548 36.8731 67.574 81.6053C30.6002 126.338 32.2834 188.609 71.1306 220.718Z" stroke="white"/>
<path d="M152.542 171.617C152.738 171.421 152.738 171.105 152.542 170.91L149.36 167.728C149.165 167.532 148.848 167.532 148.653 167.728C148.458 167.923 148.458 168.239 148.653 168.435L151.482 171.263L148.653 174.092C148.458 174.287 148.458 174.603 148.653 174.799C148.848 174.994 149.165 174.994 149.36 174.799L152.542 171.617ZM123.811 171.763H152.189V170.763H123.811V171.763Z" fill="white"/>
<path d="M192.966 54.4119L195.177 60.3872L201.152 62.5983L195.177 64.8094L192.966 70.7847L190.755 64.8094L184.779 62.5983L190.755 60.3872L192.966 54.4119Z" fill="white"/>
<path d="M154.186 222L156.398 227.975L162.373 230.186L156.398 232.398L154.186 238.373L151.975 232.398L146 230.186L151.975 227.975L154.186 222Z" fill="white"/>
</svg>
