<svg width="345" height="634" viewBox="0 0 345 634" fill="none" xmlns="http://www.w3.org/2000/svg">
<path d="M225.508 2.05739C225.264 3.36268 224.625 4.36899 223.973 4.24691C223.321 4.12484 223.117 5.21259 223.532 7.20414C223.791 8.8287 223.622 10.9361 223.262 11.6568C222.773 12.466 222.82 12.8126 223.534 12.6084C224.139 12.3838 224.452 13.1178 224.16 14.0764C223.956 15.1642 223.706 19.5081 223.673 23.8926C223.459 32.859 220.853 46.7819 219.229 47.0409C218.645 47.1568 217.986 48.2719 217.742 49.5772C217.376 51.5351 217.573 51.6845 218.687 50.542C220.378 48.7195 219.361 54.1581 217.052 58.6797C215.632 61.4538 215.632 61.4538 216.78 57.7281C217.445 55.3758 217.627 52.5954 217.07 51.3653C216.505 49.5709 216.709 48.4832 218.312 46.5315C220.064 44.3826 220.119 43.4921 219.207 39.9441C218.547 37.4564 218.58 33.0718 219.292 29.2648C219.964 25.6753 220.078 22.657 219.426 22.5349C218.882 22.4332 218.623 20.8086 218.949 19.0683C219.641 15.37 218.132 14.4121 216.434 17.4719C215.775 18.587 214.98 19.2264 214.498 18.7983C214.015 18.3702 213.968 19.825 214.451 22.0544C214.914 24.3927 215.126 27.472 214.841 28.9948C214.535 30.6264 214.652 33.0124 215.06 34.4397C215.985 37.3147 215.03 47.8313 214.153 45.3029C213.615 43.964 213.289 43.903 212.63 45.0181C212.141 45.8272 212.039 44.5697 212.466 42.2855C212.826 39.7633 212.655 38.2679 211.922 38.5809C211.317 38.8055 210.726 38.3571 210.868 37.5957C210.902 36.814 210.949 35.3592 211.003 34.4687C211.057 33.5782 211.206 31.5795 211.382 30.0364C211.45 28.4729 211.225 27.8679 210.777 28.4596C209.5 30.4722 208.623 29.7453 207.208 25.8779C206.467 23.8253 205.536 22.1875 205.101 22.1061C203.905 21.8823 203.281 27.6199 204.234 30.9504C205.689 36.4016 207.165 39.9426 207.477 38.8752C207.973 36.8288 209.192 45.9509 208.792 48.6906C208.405 50.7572 207.963 50.1117 206.977 45.7616C205.922 41.1735 205.392 40.3988 203.883 41.2424C202.375 42.086 202.327 41.7393 203.298 39.5568C204.039 38.0066 204.106 36.443 203.515 35.9947C202.944 35.4375 202.359 35.5533 202.217 36.3147C202.054 37.1849 201.442 36.8453 200.341 35.5134C199.457 34.2222 198.234 33.543 197.826 33.917C197.33 34.162 196.148 33.2652 195.196 31.7361C194.135 30.1867 192.816 28.8141 192.035 28.7805C191.056 28.5973 191.016 28.8149 192.021 29.4534C194.733 31.1993 192.681 31.9411 189.603 30.3518C185.477 28.3414 180.278 27.2561 180.054 28.4526C179.973 28.8877 181.747 30.2329 184.105 31.4622C186.355 32.6713 190.093 34.9469 192.391 36.5026C194.688 38.0582 197.488 39.9332 198.623 40.4833C199.738 41.1422 200.051 41.8762 199.426 42.2096C196.966 43.3255 196.778 49.1445 198.98 51.8082C200.299 53.1808 200.884 54.8664 200.415 55.5668C200.055 56.2875 200.423 57.9324 201.415 59.2439C203.4 61.867 203.388 64.3414 201.362 61.9359C199.159 59.2721 199.635 60.9374 202.382 65.5042C203.844 67.9168 204.613 70.4249 204.124 71.234C203.655 71.9344 203.676 73.627 203.996 74.9253C204.492 76.4817 204.248 77.787 203.222 79.0586C202.305 80.3506 202.142 81.2208 202.754 81.5604C204.283 82.4094 203.478 92.7288 201.956 92.4439C201.303 92.3219 201.024 90.8061 201.329 89.1745C201.655 87.4341 201.655 85.6327 201.301 85.1163C200.927 84.7086 200.675 83.6482 200.6 82.8461C200.366 72.67 198.488 62.8616 197.02 63.4876C195.919 63.9572 193.227 60.3012 194.083 59.3355C194.402 58.8323 194.334 56.7931 193.701 54.7608C192.844 52.1236 192.096 51.3082 191.193 51.9272C190.16 52.6346 189.025 52.0845 187.026 50.1344C185.531 48.5036 183.587 47.4644 182.656 47.6279C181.616 47.7712 179.809 47.2078 178.388 46.379C176.77 45.4009 175.792 45.2178 175.649 45.9792C175.548 46.5231 176.255 47.556 177.281 48.0857C180.21 49.8723 181.455 52.2441 179.681 52.7004C178.968 52.9046 179.403 52.986 180.769 52.9039C182.243 52.842 184.16 53.4258 185.016 54.2615C186.464 55.5457 186.315 55.7429 183.467 55.3227L180.185 54.8211L183.678 56.6006C185.642 57.531 188.117 59.3449 189.15 60.4389C190.645 62.0697 190.713 62.3076 189.381 61.608C186.629 60.0798 187.009 61.0516 190.544 64.415C193.222 66.9426 193.29 67.1805 191.02 66.0802C188.424 64.9189 188.424 64.9189 191.021 67.8816C192.516 69.5125 193.258 71.5651 192.789 72.2654C191.831 73.7749 194.951 76.9481 196.371 75.9754C196.888 75.6217 196.834 76.5122 196.331 77.9944C195.849 79.3677 195.966 81.7537 196.571 83.3306C197.196 84.7986 197.367 86.294 196.85 86.6477C196.463 86.913 196.157 86.7432 196.279 86.0905C196.402 85.4379 195.565 84.4934 194.539 83.9636C193.078 83.3525 192.602 83.4886 192.834 84.6577C192.997 85.5889 193.527 86.3637 194.071 86.4654C194.615 86.5671 194.907 87.4099 194.744 88.2801C194.561 89.259 194.956 91.3594 195.65 93.0654C196.813 95.8723 196.792 95.9811 195.175 95.0029C193.774 94.0654 193.625 94.2626 194.169 96.1658C195.883 101.44 196.945 106.592 196.32 106.926C195.933 107.191 195.797 106.715 195.959 105.845C196.054 104.737 195.579 104.873 194.098 106.172C192.08 107.934 192.08 107.934 193.261 105.228C194.002 103.677 194.103 101.332 193.627 99.6669C193.001 98.1988 192.756 95.9013 192.871 94.6844C193.23 92.1623 192.046 85.8613 191.121 84.7876C190.747 84.3799 189.734 81.3758 188.761 78.154C187.333 73.1583 186.625 72.1254 184.281 72.0244C182.412 71.7873 182.018 71.4884 183.227 71.0392C184.328 70.5697 184.539 70.0462 183.75 69.4483C183.179 68.8911 182.635 68.7894 182.554 69.2245C182.473 69.6596 181.677 68.4975 180.678 66.6218C178.522 62.5033 171.161 56.7352 165.472 54.6576L161.354 53.2114L164.073 55.5215C165.521 56.8056 166.602 58.2463 166.5 58.7902C166.378 59.4428 166.84 59.9796 167.601 60.1221C168.253 60.2441 169.633 61.2904 170.517 62.5816C171.421 63.7639 173.134 65.4354 174.317 66.3323C175.391 67.2087 176.588 69.2339 176.867 70.7497C177.289 73.3055 177.16 73.3939 175.685 71.6543C174.76 70.5806 173.835 69.507 173.57 69.1196C172.707 67.7197 167.351 64.4659 166.685 65.0168C166.298 65.2821 166.475 65.5403 167.127 65.6624C167.78 65.7845 168.425 67.1438 168.467 68.7276C168.617 70.3318 169.154 71.6708 169.806 71.7929C170.35 71.8946 172.518 73.5387 174.408 75.4684C177.637 78.662 177.705 78.8998 175.204 78.4319C173.682 78.147 171.623 78.3247 170.651 78.7058C169.313 79.2434 170.556 79.8138 174.777 80.7161C178.039 81.3265 179.935 82.0191 179.004 82.1826C178.073 82.3461 176.497 82.9519 175.505 83.4417C174.125 84.1969 174.391 84.5842 177.136 85.5483C178.924 86.2205 180.433 87.1783 180.31 87.831C180.209 88.3748 180.787 89.4962 181.575 90.094C182.364 90.6919 182.833 91.7929 182.731 92.3368C182.609 92.9895 182.133 93.1256 181.651 92.6976C181.188 92.1608 179.972 92.0457 178.932 92.1889C177.417 92.4683 177.75 93.0936 180.095 94.9959C181.869 96.3411 183.698 98.5971 184.344 99.9564C185.35 102.396 185.221 102.485 182.455 101.629C179.71 100.665 179.689 100.774 182.864 103.057C185.664 104.932 185.977 105.666 184.509 106.292C183.171 106.829 183.089 107.265 184.095 107.903C185.801 109.01 185.258 110.71 183.301 110.344C182.431 110.181 181.771 109.495 181.873 108.951C181.995 108.298 181.533 107.761 180.989 107.66C179.902 107.456 179.787 108.673 180.108 115.376C180.197 117.306 179.932 116.919 179.313 114.214C178.701 112.072 178.387 109.537 178.53 108.776C178.693 107.905 178.38 107.171 177.727 107.049C177.184 106.948 176.762 106.193 176.925 105.323C177.088 104.453 176.856 103.284 176.265 102.835C175.674 102.387 175.463 102.911 175.586 104.059C175.709 105.208 175.131 104.087 174.253 101.558C173.396 98.9212 172.247 97.2426 171.405 97.5353C170.562 97.8279 170.474 97.6988 171.051 97.0188C172.206 95.6587 165.542 83.1538 163.966 83.7594C163.361 83.9841 161.941 83.1553 160.799 82.041C158.161 79.2958 156.442 78.8615 157.686 81.2335C158.529 82.7421 158.162 82.8987 155.505 82.0637C153.697 81.5003 151.339 80.2709 150.265 79.3945C148.797 78.2191 147.037 78.0024 143.374 78.3303L138.563 78.781L142.267 80.037C145.774 81.1435 145.882 81.1638 143.11 81.5457C141.03 81.8321 141.989 82.124 146.073 82.5505C149.158 82.9026 151.727 83.6085 151.625 84.1523C151.544 84.5874 150.878 85.1383 150.294 85.2542C149.601 85.3496 150.675 86.226 152.727 87.2856C154.977 88.4946 156.064 88.6981 155.751 87.9641C155.439 87.2301 156.247 87.7191 157.587 88.9829C158.817 90.2264 160.829 91.5035 162.134 91.7477C163.438 91.9918 164.927 93.0584 165.525 94.071C166.457 95.7088 166.11 95.7565 163.059 94.6227L159.464 93.3871L162.923 95.9483C164.806 97.3139 167.035 98.6316 167.688 98.7537C168.775 98.9571 168.714 99.2835 167.362 100.494C166.139 101.616 166.119 101.725 167.22 101.255C168.905 100.67 174.132 105.814 174.643 108.499C174.922 110.014 174.704 109.974 173.426 108.384C172.237 106.923 171.693 106.821 171.183 107.739C170.715 108.439 169.94 108.97 169.288 108.848C168.527 108.705 168.737 108.182 169.682 107.345C171.013 106.243 170.897 105.659 169.429 104.483C168.355 103.607 167.2 103.166 166.813 103.431C166.425 103.696 165.154 102.67 164.073 101.23C162.904 99.6599 160.212 97.8053 157.99 97.0517C155.788 96.1893 154.082 95.082 154.204 94.4294C154.347 93.668 153.783 93.6751 152.879 94.294C151.588 95.1783 151.486 95.7222 152.649 96.7278C153.417 97.4344 154.946 98.2834 155.925 98.4665C156.903 98.6496 158.861 100.817 160.105 103.189C161.35 105.561 163.702 108.028 165.272 108.659C169.023 110.262 168.712 113.131 165.048 111.657C163.567 111.155 162.513 110.169 162.615 109.626C162.717 109.082 162.322 108.783 161.718 109.007C161.222 109.252 159.713 108.294 158.632 106.854C154.995 102.233 149.769 100.692 152.774 105.082C154.099 107.019 154.079 107.128 151.666 106.789C149.798 106.552 150.083 106.83 152.747 108.23C156.764 110.219 159.028 112.557 156.418 112.069C155.657 111.926 157.112 113.775 159.702 116.173C162.4 118.592 163.501 119.924 162.258 119.353C158.023 117.323 159.363 120.388 163.577 122.527C166.962 124.286 172.04 129.627 169.865 129.22C168.669 128.997 163.612 125.348 161.042 122.841C159.438 121.19 158.194 120.619 157.617 121.299C157.189 121.782 155.891 122.102 154.933 121.811C153.411 121.526 153.56 121.328 155.422 121.001C157.522 120.606 157.277 120.11 153.64 117.291C151.363 115.626 148.087 113.887 146.436 113.691C144.805 113.386 143.983 113.57 144.683 114.038C145.295 114.378 145.804 115.261 145.682 115.914C145.54 116.675 143.889 116.479 141.143 115.515C138.18 114.51 134.857 114.226 131.174 114.663C123.311 115.781 123.529 117.623 131.392 118.306C135.062 118.543 137.087 119.147 136.136 119.419C135.164 119.8 137.516 120.465 141.709 120.912C149.768 121.745 158.556 125.303 158.129 127.587C157.803 129.328 147.161 128.462 144.598 126.519C142.124 124.705 134.309 122.567 134.105 123.655C134.003 124.199 134.751 125.014 135.798 125.435C136.715 125.945 133.827 125.742 129.349 125.017L121.153 123.708L127.412 126.343C130.858 127.776 134.039 128.821 134.644 128.597C135.119 128.461 135.69 129.018 135.854 129.949C136.065 131.227 137.308 131.797 140.543 131.952C144.124 132.059 144.845 132.419 144.56 133.942C144.377 134.921 144.56 135.744 145.084 135.954C148.393 136.911 151.167 138.331 152.356 139.792C153.192 140.736 155.123 142.448 156.74 143.427C160.329 145.899 159.256 146.824 155.518 144.549C152.982 143.061 152.874 143.041 153.785 144.787C154.383 145.8 155.654 146.826 156.742 147.029C157.829 147.233 159.603 148.578 160.772 150.148C162.886 152.682 162.866 152.791 160.786 151.276C157.524 148.864 155.852 148.777 157.117 151.04C157.715 152.053 157.681 152.834 157.137 152.733C156.159 152.549 155.452 151.516 150.965 144.823C150.013 143.294 148.307 142.186 147.267 142.33C146.139 142.344 145.507 142.113 145.806 141.718C146.214 141.344 145.072 140.23 143.454 139.252C140.83 137.635 140.395 137.554 140.674 139.069C141.09 141.061 141.09 141.061 136.672 138.208C132.668 135.545 128.706 134.466 128.421 135.989C128.319 136.532 130.46 137.721 133.294 138.814L138.242 140.641L134.294 140.69L130.366 140.631L135.198 141.873L140.05 143.006L135.436 143.606L130.802 144.315L137.013 144.802C140.663 145.147 143.993 145.995 145.067 146.871C146.712 148.305 146.583 148.393 143.953 148.014C142.322 147.709 140.718 147.859 140.29 148.342C139.862 148.825 138.516 148.798 137.381 148.248C134.391 146.788 135.282 150.444 138.593 153.203L141.135 155.255L138.396 154.855C136.527 154.618 137.384 155.454 141.095 157.274C143.956 158.822 146.362 160.398 146.281 160.833C146.179 161.377 147.028 161.649 148.157 161.635C149.196 161.492 150.943 162.381 151.976 163.475C153.737 165.493 153.628 165.473 150.162 164.149C146.805 162.845 146.567 162.913 147.675 164.81C148.253 165.931 149.239 166.678 149.823 166.562C150.924 166.093 158.006 170.345 157.823 171.324C157.762 171.65 156.912 171.379 155.995 170.869C154.377 169.891 154.357 170 155.356 171.876C156.023 173.126 156.145 174.275 155.758 174.54C154.596 175.336 152.006 171.136 152.882 170.062C153.31 169.579 152.78 168.804 151.536 168.234C149.878 167.473 149.511 167.63 149.688 169.689C149.933 171.987 149.736 171.838 147.724 168.759C146.527 166.734 145.303 164.253 144.834 163.152C144.426 161.725 142.897 160.876 140.484 160.537C138.527 160.171 137.786 159.919 139.043 159.817C140.647 159.667 140.205 159.021 136.922 156.718C131.953 153.199 130.438 153.478 133.545 157.325L135.747 159.988L132.288 157.427C128.542 154.587 120.992 152.837 119.45 154.462C119.022 154.945 117.357 155.421 115.774 155.463C114.211 155.396 117.086 156.271 122.156 157.445C130.596 159.25 131.011 159.44 127.328 159.876C123.298 160.361 123.298 160.361 130.923 162.913C135.151 164.38 139.059 166.35 139.698 167.145C140.208 168.028 141.39 168.925 142.152 169.067C142.913 169.21 144.381 170.385 145.394 171.588C146.652 173.287 146.747 173.98 145.646 174.45C144.674 174.831 144.722 175.177 146.136 175.442C147.114 175.625 148.106 175.135 148.358 174.394C148.48 173.741 148.901 174.496 149.16 176.12C149.466 178.092 151.315 180.239 154.49 182.522C160.573 186.699 163.49 190.96 157.78 187.19C155.768 185.913 154.11 185.152 154.028 185.588C153.927 186.131 153.532 185.832 153.199 185.207C152.24 183.114 145.062 176.367 143.54 176.082C142.779 175.94 142.534 175.443 142.962 174.961C143.39 174.478 142.316 173.601 140.658 172.841C138.87 172.169 135.418 170.172 132.835 168.337C123.577 161.877 116.461 158.406 117.447 160.955C117.672 161.56 120.098 163.027 122.783 164.317C127.214 166.498 127.5 166.776 124.877 166.961C122.254 167.145 122.539 167.424 126.971 169.604C129.655 170.895 131.735 172.41 131.633 172.953C131.511 173.606 130.295 173.491 128.636 172.73C122.853 169.96 117.273 167.902 114.119 167.312C110.728 166.79 111.014 167.069 117.328 170.615C119.666 171.953 119.666 171.953 115.902 172.824C113.802 173.22 112.205 173.934 112.491 174.213C112.756 174.6 114.815 174.422 117.152 173.959C119.49 173.496 122.786 173.324 124.396 173.738C127.332 174.288 127.312 174.396 124.866 174.839C123.35 175.119 122.12 175.677 122.039 176.112C121.978 176.438 123.045 176.75 124.54 176.58C125.906 176.498 128.842 177.047 131.152 177.93L135.162 179.355L131.418 180.118C128.367 180.786 126.716 180.59 123.637 179C121.496 177.812 120.028 176.636 120.347 176.133C120.755 175.759 119.905 175.487 118.648 175.59C116.242 175.815 116.222 175.924 118.784 177.867C122.904 181.115 121.578 180.979 115.917 177.556C109.623 173.901 110.058 173.983 109.793 175.397C109.691 175.94 110.133 176.586 110.894 176.729C113.722 177.258 120.988 182.332 119.54 182.85C118.806 183.163 120.689 184.528 123.7 185.88C129.416 188.413 135.411 192.461 132.781 192.082C132.02 191.939 131.503 192.293 131.837 192.918C132.041 193.632 130.756 193.279 128.921 192.26C121.146 188.104 115.321 185.55 114.805 185.904C114.418 186.169 115.621 186.957 117.517 187.65C120.854 189.062 122.703 191.209 120.161 190.959C116.988 190.478 123.057 193.527 127.08 194.28C130.104 194.959 130.913 195.448 129.704 195.897C128.365 196.434 128.522 196.801 130.506 197.623C132.402 198.316 132.144 198.492 129.297 198.072C123.384 197.191 125.79 198.767 133.123 200.477C140.565 202.207 143.127 204.15 136.583 203.038C134.3 202.611 131.282 202.497 129.984 202.817C128.578 203.117 130.08 203.51 133.838 203.876C138.941 204.268 140.097 204.709 140.355 206.334C140.655 207.74 139.948 208.509 138.087 208.836C135.987 209.231 136.381 209.53 140.364 210.501C143.062 211.118 144.197 211.668 142.939 211.771C141.118 211.88 141.601 212.308 144.768 214.027L148.853 216.255L144.809 215.611C142.614 215.312 138.774 213.581 136.171 211.855C130.176 207.806 129.177 207.732 133.324 211.435C138.435 215.994 136.064 215.438 129.362 210.356C126.011 207.815 122.884 205.879 122.497 206.144C122.11 206.409 124.128 208.251 126.908 210.235C129.797 212.239 131.51 213.91 130.926 214.026C130.233 214.121 128.289 213.082 126.623 211.757C123.775 209.536 114.817 204.482 113.404 204.218C111.861 204.042 118.033 208.349 119.861 208.803C121.037 209.136 121.302 209.523 120.48 209.707C119.786 209.803 119.209 210.483 119.542 211.108C119.767 211.713 118.7 211.401 117.279 210.572C115.77 209.614 112.569 208.677 110.068 208.209L105.461 207.572L109.124 209.046C111.414 210.037 111.897 210.465 110.354 210.289C109.05 210.045 107.12 210.134 106.06 210.386C104.436 210.645 104.592 211.012 106.889 212.568C109.799 214.463 109.799 214.463 104.131 214.078C101.005 213.944 97.4306 214.401 96.0717 215.047C93.979 216.007 94.5227 216.108 99.6396 215.827C105.123 215.39 105.667 215.492 105.865 217.443C106.056 218.829 106.953 219.447 108.754 219.447C110.228 219.385 111.689 219.996 111.893 220.71C112.186 221.552 111.819 221.709 111.031 221.111C110.222 220.622 109.094 220.636 108.666 221.119C108.238 221.602 110.358 222.899 113.43 223.924C117.766 225.411 118.466 225.88 116.604 226.207C113.316 226.943 115.511 227.241 121.28 227.082C124.922 226.863 126.424 227.256 127.329 228.439C128.301 229.859 128.002 230.253 125.406 230.894C122.444 231.69 122.423 231.799 126.263 231.729C131.319 231.775 137.455 233.261 138.516 234.81C139.135 235.714 138.747 235.979 137.443 235.735C136.464 235.552 135.839 235.885 136.043 236.599C136.267 237.204 135.513 237.626 134.317 237.402C133.121 237.178 131.918 236.39 131.694 235.785C131.02 233.97 128.893 233.91 129.22 235.773C129.519 237.18 128.65 237.017 123.674 234.735C116.497 231.591 114.017 231.014 113.752 232.428C113.651 232.972 114.419 233.679 115.615 233.902C116.702 234.106 119.169 235.356 120.943 236.701C123.044 238.107 123.397 238.624 121.759 237.754C115.955 235.092 111.626 234.169 108.405 235.143L105.076 236.096L108.304 237.488C110.506 238.35 111.254 239.166 110.567 239.826C109.841 240.703 110.908 241.015 114.903 241.312C119.266 241.453 121.271 242.166 125.322 245.176C130.576 248.973 135.974 255.612 131.712 253.126C130.707 252.488 129.633 251.611 129.388 251.115C128.014 248.832 123.338 244.354 121.815 244.069C120.728 243.866 121.306 244.987 123.236 246.699C124.841 248.35 126.248 249.852 126.187 250.178C126.065 250.831 121.565 248.413 121.096 247.312C120.294 245.586 116.379 243.052 113.857 242.693C111.791 242.306 112.145 242.823 115.319 245.105L119.282 247.986L115.578 246.73C113.573 246.017 110.827 245.053 109.584 244.482C108.211 244 107.083 244.014 106.961 244.667C106.859 245.211 107.844 245.958 109.238 246.332C111.521 246.759 111.501 246.868 109.272 247.351C107.519 247.699 108.219 248.167 112.33 249.049C116.857 250.121 117.162 250.291 114.322 250.435L110.917 250.586L114.472 252.039C116.348 252.841 120.024 253.641 122.586 253.783C125.019 254.013 126.215 254.237 125.176 254.38C121.037 254.844 122.968 256.556 128.051 257.057C131.938 257.334 132.55 257.674 130.362 257.94C127.915 258.383 128.33 258.573 132.856 259.645L138.252 260.88L133.699 261.154C131.205 261.25 127.903 260.857 126.421 260.355C124.504 259.771 123.098 260.071 121.984 261.213C120.849 262.464 118.899 262.662 115.182 262.079C110.139 261.361 110.139 261.361 113.694 262.814C117.772 264.478 116.039 264.717 109.793 263.21C106.443 262.471 105.641 262.546 105.94 263.953C106.083 264.993 105.683 265.931 104.861 266.115C104.059 266.19 105.194 266.74 107.26 267.127C110.175 267.785 110.658 268.213 109.19 268.839C107.852 269.377 108.355 269.696 111.263 269.79C113.39 269.85 115.381 269.434 115.7 268.931C116.4 267.599 119.485 267.951 119.241 269.256C119.159 269.691 118.304 270.657 117.509 271.296C116.605 271.915 118.644 271.846 122.15 271.151C127.865 270.082 131.582 270.665 127.825 272.101C125.881 272.863 128.96 274.452 132.236 274.389C134.274 274.321 134.295 274.212 132.079 272.221C130.631 270.937 130.474 270.57 131.786 271.378C132.901 272.037 136.89 273.572 140.744 274.63C146.187 276.212 146.69 276.531 143.279 276.118C140.866 275.779 137.829 275.774 136.531 276.094C134.886 276.462 135.498 276.801 138.624 276.936C141.533 277.03 143.735 277.892 144.856 279.115C147.385 281.84 145.259 283.581 141.269 282.047L137.891 280.852L140.848 283.094L143.805 285.336L140.665 284.073C138.986 283.421 134.936 282.213 131.803 281.514C126.407 280.279 126.189 280.238 128.317 282.1C130.444 283.962 130.336 283.941 126.87 282.617C120.352 280.159 118.83 279.874 122.323 281.654C124.049 282.652 125.518 283.828 125.416 284.372C125.335 284.807 126.34 285.445 127.734 285.818C129.038 286.063 129.412 286.47 128.59 286.654C127.768 286.838 125.26 285.806 123.051 284.379C118.633 281.526 114.454 280.406 115.127 282.221C115.351 282.826 114.815 283.289 113.836 283.105C112.857 282.922 112.321 283.385 112.545 283.99C112.749 284.703 112.063 285.363 110.915 285.486C106.43 285.998 100.008 287.836 99.866 288.597C99.6625 289.685 99.7712 289.705 104.276 289.085C107.287 288.635 108.157 288.798 108.694 290.137C109.075 291.109 109.489 291.299 109.611 290.646C109.754 289.885 112.519 288.939 115.768 288.42C120.986 287.596 121.394 287.222 119.987 285.72C119.042 284.755 118.838 284.041 119.381 284.143C120.034 284.265 120.911 284.992 121.441 285.767C122.148 286.8 120.626 288.316 115.979 291.5C109.783 295.744 108.703 297.906 112.4 298.598C113.596 298.822 112.93 299.373 110.79 299.986C108.996 300.551 106.679 300.905 105.918 300.763C104.504 300.498 101.468 304.096 101 306.597C100.898 307.141 103.82 306.562 107.516 305.452C114.454 303.261 117.797 303.436 114.292 305.932C113.15 306.619 112.403 307.605 112.777 308.013C113.042 308.4 114.51 307.774 116.079 306.604C118.036 305.169 119.68 304.801 121.141 305.413C122.276 305.963 123.989 305.833 125.001 305.234C128.337 303.044 132.828 301.295 134.568 301.62C135.438 301.783 134.385 302.599 132.313 303.45C125.056 306.145 128.141 306.497 136.94 303.978C138.972 303.345 142.526 302.997 145 303.009L149.471 303.17L145.449 304.219C140.733 305.363 140.815 306.729 145.578 305.932C147.331 305.585 149.003 305.672 149.289 305.951C149.554 306.338 148.215 306.876 146.462 307.223C144.709 307.571 143.479 308.129 143.744 308.516C144.009 308.903 145.375 308.821 146.911 308.433C151.708 306.854 156.2 306.906 158.735 308.394C160.135 309.331 160.842 310.364 160.394 310.956C159.946 311.548 160.625 312.125 162.039 312.39C168.978 313.8 169.358 314.772 168.425 328.783C168.31 330 167.938 336.798 167.526 343.813C165.655 380.277 156.3 432.678 146.516 460.907C141.696 474.641 135.483 489.802 128.508 504.822C126.858 508.228 123.476 515.476 121.004 520.868C118.532 526.259 115.259 533.528 113.718 536.954C112.067 540.361 110.492 544.569 110.166 546.31C109.841 548.05 109.291 549.186 109.046 548.689C108.672 548.282 110.327 538.234 112.654 526.398C116.406 506.948 120.692 478.028 122.412 459.211C122.819 455.235 125.905 436.335 129.378 417.171C137.75 371.228 138.702 374.559 110.657 354.225C91.612 340.529 85.0937 336.27 81.3967 335.578C76.8299 334.723 70.2459 337.432 62.3581 343.499C53.5464 350.294 38.1652 362.727 33.4232 367.018C31.6433 368.712 28.9598 371.024 27.4108 372.085C25.9704 373.167 22.3833 376.098 19.462 378.479C16.5203 380.968 13.1913 383.722 12.1383 384.539C11.0649 385.464 8.89769 387.422 7.39632 388.83C5.89494 390.238 3.5103 392.156 2.21943 393.04C0.194729 394.237 0.00458277 394.652 1.3094 394.896C2.83169 395.181 27.6642 378.55 62.076 354.029C76.7443 343.601 76.9821 343.533 81.0123 344.85C86.0007 346.459 124.505 372.24 126.518 375.318C128.598 378.635 129.368 384.746 128.868 393.433C128.638 397.669 122.473 436.031 115.059 478.663C107.773 521.207 100.929 560.793 99.9793 566.47C98.9483 572.581 95.3372 585.866 91.1551 598.593C79.0705 635.51 79.3147 634.205 84.4247 633.36C86.6331 632.985 87.2036 631.74 89.5452 622.834C91.0182 617.368 93.5506 609.849 95.1532 606.096C103.757 585.977 111.498 566.261 116.603 551.004C121.084 537.882 122.286 535.068 129.227 522.632C131.835 517.716 135.822 510.243 138.07 506.048C144.658 493.095 155.567 480.501 165.942 473.774C170.311 470.876 182.29 467.601 187.93 467.53C191.403 467.617 192.212 468.106 194.666 471.83C198.603 477.858 207.865 498.73 208.056 501.918C208.247 503.305 208.893 504.664 209.762 504.827C211.72 505.193 212.005 503.67 210.671 499.368C210.039 497.336 209.868 495.84 210.086 495.881C211.173 496.084 204.385 475.225 201.78 469.897C200.291 467.029 197.688 463.502 195.805 462.136C188.185 456.545 170.763 460.04 158.146 469.725L154.6 472.439L157.133 466.721C158.505 463.601 163.36 452.688 167.876 442.387C184.819 403.565 192.018 390.952 212.994 362.453C230.492 338.708 242.032 322.742 242.154 322.089C242.216 321.763 243.941 319.158 245.924 316.377C250.937 309.434 257.899 296.889 262.924 285.671C265.246 280.476 267.583 276.41 268.235 276.532C268.888 276.655 270.465 277.85 271.675 279.202C277.589 285.488 299.075 305.382 300.163 305.586C300.489 305.647 301.611 306.87 302.603 308.181C304.235 310.288 310.686 316.111 325.354 328.538C327.196 330.121 331.934 334.272 335.775 337.805C339.615 341.338 343.163 344.029 343.571 343.655C344.067 343.41 344.169 342.866 343.971 342.716C342.87 341.384 331.878 329.758 329.132 326.993C327.439 325.213 325.393 322.916 324.686 321.883C323.979 320.85 323.014 319.994 322.579 319.912C322.144 319.831 320.696 318.547 319.506 317.086C318.317 315.625 316.821 313.994 316.379 313.348C315.829 312.683 313.082 309.917 310.227 307.131C307.372 304.345 303.287 300.316 301.241 298.019C299.174 295.831 294.559 291.027 290.847 287.406C287.245 283.805 284.036 280.502 283.771 280.115C283.506 279.728 280.868 276.982 277.925 274.067C267.695 264.385 262.136 265.822 256.235 279.916C254.361 284.519 251.74 290.108 250.531 292.359C249.213 294.589 246.585 299.614 244.486 303.612C241.009 310.166 228.749 329.375 225.393 333.476C224.537 334.441 223.858 335.665 223.736 336.318C223.553 337.297 217.182 346.687 212.848 352.406C208.833 357.622 192.58 385.541 184.614 401.05C181.476 406.992 176.77 415.906 174.121 421.04C171.384 426.044 168.695 431.395 167.975 432.837C167.364 434.298 166.195 436.331 165.428 437.426C164.66 438.521 161.753 443.831 158.847 449.142C155.94 454.452 154.194 457.165 154.907 455.159C157.345 448.748 166.926 402.356 169.36 385.136C170.723 376.047 172.024 363.681 172.491 357.577C172.829 351.56 173.377 345.021 173.485 343.24C173.966 338.263 174.337 329.664 174.457 321.806C174.611 314.967 174.781 314.661 180.351 307.147C183.401 302.877 186.567 299.191 187.171 298.967C187.797 298.633 188.068 297.783 187.776 296.941C187.483 296.098 187.646 295.228 188.271 294.894C189.739 294.268 193.556 288.903 194.33 286.571C194.642 285.504 194.132 284.62 193.045 284.417C191.394 284.22 188.357 287.818 182.095 297.229C180.797 299.35 179.473 301.016 179.255 300.975C178.603 300.853 181.427 292.375 184.259 286.263C185.631 283.142 186.636 280.178 186.391 279.682C186.03 278.601 189.941 268.525 191.945 265.635C195.586 260.012 195.368 258.17 191.237 260.999C188.784 262.679 182.767 272.586 181.925 276.482C181.511 278.093 180.567 280.731 179.786 282.499C179.005 284.267 179.358 281.18 180.695 275.238C183.117 264.096 184.421 260.737 190.982 249.13C198.351 236.211 197.039 233.602 188.826 245.012C185.756 249.391 183.976 251.084 183.358 250.181C182.297 248.631 187.689 237.256 189.32 237.561C189.864 237.663 190.203 237.051 190.04 236.12C189.877 235.189 191.215 232.85 193.185 230.742C197.424 226.131 199.271 222.874 198 221.848C196.946 220.863 188.957 227.474 188.529 229.758C188.387 230.519 187.3 232.117 186.186 233.26C185.072 234.402 183.564 237.047 182.851 239.053C182.227 241.188 181.256 243.37 180.807 243.962C180.271 244.424 178.98 247.11 178.016 249.857C176.482 253.848 176.536 252.957 178.287 245.404C179.481 240.224 180.941 235.431 181.518 234.751C183.21 232.928 184.743 225.334 183.404 225.872C182.779 226.205 183.35 224.961 184.695 223.186C186.468 220.929 186.929 219.664 186.141 219.066C185.373 218.359 185.787 216.748 187.634 213.491C188.993 211.043 190.554 207.508 191.206 205.829C191.77 204.02 192.361 202.667 192.469 202.688C192.578 202.708 193.413 200.05 194.241 196.827L195.795 190.926L192.786 193.177C191.087 194.436 188.676 197.7 187.345 200.603C182.842 210.23 182.734 210.21 182.855 205.955C182.867 203.48 183.832 200.734 185.346 198.653C186.922 196.246 187.364 195.09 186.555 194.601C185.746 194.112 186.948 191.297 190.052 186.136C192.646 181.893 194.955 177.371 195.179 176.175C195.403 174.978 196.592 172.837 197.679 171.239C198.854 169.77 199.424 168.526 198.772 168.404C198.228 168.302 197.976 167.242 198.2 166.045C198.424 164.848 198.172 163.788 197.629 163.686C196.433 163.463 194.836 165.979 194.307 168.807C194.083 170.003 193.526 170.574 192.935 170.126C192.364 169.569 191.746 170.466 191.44 172.098C190.708 176.014 185.634 185.084 184.33 184.84C183.786 184.738 183.813 183.392 184.464 181.713C185.205 180.163 186.087 177.851 186.658 176.607C187.14 175.234 189.415 171.494 191.718 168.21C194.021 164.925 195.61 161.845 195.345 161.458C195.079 161.07 196.302 158.147 198.129 154.999C199.827 151.939 201.307 148.838 201.321 148.166C201.443 147.513 202.264 145.528 203.351 143.93C206.184 139.619 208.641 131.297 207.39 130.162C206.425 129.306 203.98 133.352 198.635 145.074C197.454 147.78 195.878 150.187 195.382 150.432C193.935 150.949 194.43 148.903 196.074 146.733C197.677 144.782 205.69 126.016 206.199 123.297C206.382 122.318 206.11 121.367 205.458 121.245C204.044 120.98 200.424 126.495 197.578 133.28C196.207 136.401 194.251 139.637 193.177 140.562C191.995 141.467 191.723 142.317 192.294 142.874C193.348 143.859 191.624 150.066 189.817 151.304C188.913 151.923 188.831 150.557 189.53 147.423C190.127 144.833 190.5 141.638 190.18 140.339C189.833 138.586 189.962 138.497 190.52 139.727C191.254 141.216 191.621 141.059 192.592 138.877C193.332 137.327 193.678 135.477 193.345 134.852C193.141 134.139 194.18 132.194 195.811 130.698C197.462 129.093 198.718 127.189 198.534 126.366C198.248 124.286 208.974 110.87 212.854 108.781C213.608 108.359 213.323 108.081 212.154 108.312C209.402 108.585 209.836 106.865 213.498 102.935C215.21 101.003 215.93 99.5619 215.168 99.4195C213.864 99.1753 218.218 93.3478 220.439 92.2999C221.302 91.8985 221.255 91.5518 220.494 91.4094C219.95 91.3077 218.632 91.7365 217.748 92.2468C216.845 92.8657 217.734 91.1183 219.806 88.4663C224.181 82.5299 228.879 67.6475 226.758 66.3501C225.643 65.6912 225.725 65.2561 227.226 63.8483C231.126 59.8495 234.787 54.1174 233.991 52.9553C233.549 52.3098 234.072 50.7188 235.288 49.0324C236.742 47.278 237.095 45.9931 236.524 45.4359C235.953 44.8788 235.979 43.5328 236.659 42.3089C237.609 40.2352 237.371 40.3032 234.253 42.5342C232.317 43.8607 230.951 45.7442 231.115 46.6754C231.278 47.6067 230.823 49.4355 230.035 50.639C228.738 52.7605 228.738 52.7605 228.602 50.4833C228.52 49.117 229.884 45.432 231.711 42.2839C233.43 39.1154 234.971 35.6886 235.066 34.5805C235.032 33.5609 236.152 31.1811 237.518 29.2976C238.794 27.2849 240.655 23.3549 241.64 20.4994C242.645 17.5352 244.206 13.9997 245.164 12.4902C246.95 9.55953 247.159 3.63177 245.474 4.21714C243.769 4.91128 238.96 14.3691 237.997 18.9172C237.115 23.0302 237.115 23.0302 236.855 19.6042L236.596 16.1783L235.775 19.965C235.368 22.1405 234.417 24.2142 233.772 24.6564C233.106 25.2072 232.006 27.4782 231.361 29.7217C229.202 37.6489 227.605 34.7605 228.655 24.9373C229.156 19.8523 229.174 12.5379 228.629 8.83341C227.472 1.1864 226.18 -1.53211 225.508 2.05739ZM202.628 46.7491C204.762 49.175 206.626 54.2521 207.049 58.6092C207.396 62.1643 207.267 62.2528 206.2 60.1391C205.554 58.7799 205.077 57.1146 205.2 56.462C205.322 55.8094 204.567 54.4297 203.534 53.3358C202.5 52.2418 201.766 50.7534 201.929 49.8832C202.071 49.1218 201.718 48.6053 201.113 48.8299C200.508 49.0545 199.978 48.2798 199.876 47.0222C199.691 44.3984 200.493 44.3232 202.628 46.7491ZM213.767 50.9724C213.278 51.7816 213.013 51.3942 213.237 50.1978C213.352 48.9809 213.8 48.3893 214.045 48.8854C214.31 49.2728 214.236 50.272 213.767 50.9724ZM211.235 60.2933C210.523 64.1003 209.332 59.0365 209.725 53.9312L210.09 48.3705L210.805 53.5705C211.166 56.4526 211.378 59.5318 211.235 60.2933ZM225.383 58.6624C224.473 60.5186 223.169 62.0759 222.347 62.2598C220.96 62.4507 221.232 61.6009 224.804 55.7397C227.08 51.9999 227.475 54.1002 225.383 58.6624ZM187.659 52.1667C187.272 52.432 186.273 52.3576 185.573 51.8889C184.764 51.3998 185.151 51.1345 186.347 51.3583C187.564 51.4733 188.155 51.9217 187.659 52.1667ZM215.364 71.3106C214.059 72.8679 212.796 74.2076 212.47 74.1466C212.252 74.1059 212.972 72.6644 214.276 71.1072C215.601 69.4412 216.844 68.2102 217.17 68.2713C217.388 68.312 216.688 69.6446 215.364 71.3106ZM181.781 73.3579C181.72 73.6842 181.183 74.1467 180.469 74.3509C179.865 74.5755 179.362 74.2562 179.463 73.7124C179.586 73.0597 180.231 72.6176 180.775 72.7193C181.427 72.8414 181.821 73.1403 181.781 73.3579ZM217.765 81.3295C217.256 82.2474 216.611 82.6896 216.454 82.3226C216.189 81.9352 216.42 81.3029 216.977 80.7317C218.281 79.1744 218.873 79.6228 217.765 81.3295ZM183.548 75.9402C183.508 76.1578 182.645 76.5592 181.605 76.7024C180.674 76.866 180.259 76.6758 180.708 76.0843C181.564 75.1186 183.711 75.0701 183.548 75.9402ZM184.481 82.9824C184.38 83.5262 183.877 83.2069 183.496 82.235C183.115 81.2631 182.816 79.8561 182.917 79.3122C183.039 78.6596 183.522 79.0876 183.903 80.0595C184.284 81.0315 184.604 82.3297 184.481 82.9824ZM186.826 84.8847C187.051 85.4896 186.535 85.8433 185.665 85.6805C184.795 85.5178 184.441 85.0013 184.869 84.5185C185.277 84.1444 185.793 83.7907 186.011 83.8314C186.228 83.8721 186.582 84.3885 186.826 84.8847ZM212.848 90.7669C212.319 91.7937 211.239 93.9558 210.567 95.7439C209.915 97.4233 208.468 99.7419 207.374 100.776C206.389 101.83 205.391 103.557 205.167 104.753C204.882 106.276 204.495 106.541 203.876 105.638C203.169 104.605 203.522 103.32 204.799 101.307C205.886 99.709 206.667 97.9413 206.66 97.3771C206.53 95.6641 211.781 88.6533 212.977 88.8771C213.521 88.9789 213.467 89.8694 212.848 90.7669ZM198.428 89.6448C199.278 91.7178 197.892 91.9088 196.716 89.7747C196.029 88.633 196.151 87.9804 196.803 88.1024C197.456 88.2245 198.224 88.9312 198.428 89.6448ZM200.714 99.0792C199.906 100.391 199.24 100.942 199.383 100.181C199.579 98.529 201.386 95.4896 201.828 96.1352C202.113 96.4138 201.522 97.7668 200.714 99.0792ZM194.148 115.526C193.122 116.797 193.007 116.213 193.637 112.841C194.35 109.034 194.499 108.837 195.071 111.195C195.418 112.949 195.004 114.56 194.148 115.526ZM185.803 114.415C187.387 117.976 187.245 118.737 185.002 118.093C182.739 117.557 181.719 115.79 182.208 113.179C182.696 110.568 184.375 111.22 185.803 114.415ZM190.344 122.019C189.855 122.828 189.59 122.441 189.814 121.245C189.929 120.028 190.378 119.436 190.622 119.932C190.888 120.32 190.813 121.319 190.344 122.019ZM185.153 121.498C184.99 122.368 185.323 122.994 185.948 122.66C187.633 122.075 188.885 126.812 187.656 129.172C187.126 130.198 186.794 133.176 187.128 135.603C187.496 139.049 187.211 140.572 185.947 141.911C184.813 143.163 184.466 143.211 184.778 142.143C185.159 141.314 185.423 138.098 185.449 134.951C185.611 130.478 185.298 129.744 184.211 131.342C183.124 132.94 183.145 132.831 184.027 130.519C184.638 129.058 184.706 127.494 184.203 127.175C182.891 126.366 182.869 119.27 184.282 119.534C184.935 119.656 185.336 120.519 185.153 121.498ZM173.75 122.292C175.354 123.943 176.483 125.73 176.381 126.274C176.279 126.818 176.912 128.85 177.891 130.835C178.761 132.799 179.041 134.315 178.388 134.193C177.736 134.07 176.94 132.908 176.512 131.59C176.083 130.271 175.356 129.347 174.771 129.463C174.275 129.708 174.112 128.777 174.356 127.471C174.75 125.969 173.907 124.46 172.242 123.135C170.644 122.048 169.543 120.716 169.665 120.064C169.95 118.541 170.759 119.03 173.75 122.292ZM172.093 125.134C171.991 125.678 171.672 126.181 171.454 126.14C171.128 126.079 170.686 125.434 170.462 124.829C170.258 124.115 170.556 123.721 171.1 123.822C171.753 123.944 172.215 124.481 172.093 125.134ZM170.953 133.027C172.361 134.528 173.204 136.037 172.776 136.52C172.348 137.003 172.443 137.696 173.014 138.253C173.497 138.681 173.878 139.653 173.735 140.415C173.613 141.067 172.933 140.49 172.179 139.11C171.267 137.363 170.635 137.133 170.017 138.03C169.06 139.54 166.53 135.013 165.958 130.854C165.617 127.863 165.923 128.032 170.953 133.027ZM146.883 130.549C147.107 131.154 146.326 131.12 145.191 130.57C144.056 130.02 142.982 129.144 142.737 128.648C142.513 128.043 143.294 128.076 144.429 128.626C145.564 129.177 146.638 130.053 146.883 130.549ZM159.367 132.998C162.365 135.022 164.411 137.319 164.581 138.814C164.792 140.092 165.771 142.077 166.696 143.15C167.749 144.136 168.137 145.672 167.648 146.481C167.159 147.29 167.486 149.152 168.547 150.702C170.097 153.244 172.389 159.639 172.145 160.945C172.083 161.271 171.227 160.435 170.234 159.124C169.242 157.812 168.548 156.106 168.711 155.236C168.853 154.474 168.541 153.74 167.997 153.639C167.453 153.537 166.767 152.395 166.685 151.029C166.494 149.642 165.746 148.827 164.707 148.97C163.776 149.134 162.722 148.148 162.314 146.721C161.749 144.927 161.81 144.6 162.599 145.198C163.17 145.755 163.795 145.422 163.978 144.443C164.222 143.138 163.631 142.689 161.789 142.908C159.73 143.085 159.533 142.936 161.001 142.31C162.618 141.487 162.659 141.269 161.408 140.134C160.64 139.428 159.593 139.007 159.118 139.143C158.622 139.388 158.248 138.98 158.349 138.436C158.472 137.784 158.03 137.138 157.377 137.016C156.725 136.894 156.256 137.594 156.528 138.546C156.807 140.062 156.481 140.001 154.483 138.051C153.144 136.787 152.192 135.258 152.293 134.714C152.436 133.952 152.871 134.034 153.707 134.978C154.258 135.644 156.045 136.316 157.588 136.492C159.13 136.669 161.244 137.402 162.318 138.278C163.895 139.474 164.133 139.406 163.269 138.006C162.651 137.102 160.707 136.063 158.77 135.588C156.942 135.133 155.195 134.243 154.903 133.401C154.698 132.687 153.251 131.403 151.959 130.486L149.444 128.889L151.945 129.357C153.379 129.513 156.675 131.143 159.367 132.998ZM181.137 144.164C182.088 145.693 182.198 147.515 181.587 148.976C181.016 150.221 180.983 152.804 181.527 154.707C182.228 156.977 182.14 158.649 181.284 159.615C180.299 160.669 180.082 160.628 180.387 158.997C180.59 157.909 180.257 157.284 179.544 157.488C178.81 157.801 178.68 156.088 179.23 153.151C179.881 149.67 179.643 147.937 178.528 147.278C177.611 146.769 177.25 145.688 177.739 144.879C178.228 144.07 178.078 142.466 177.541 141.127C176.874 139.876 176.419 138.102 176.581 137.232C176.765 136.253 177.444 136.83 178.226 138.666C179.029 140.392 180.253 142.872 181.137 144.164ZM176.273 150.909C176.151 151.562 175.315 150.617 174.404 148.871C173.493 147.124 172.819 145.309 172.921 144.765C173.254 143.589 176.517 149.604 176.273 150.909ZM150.831 151.553C152.251 152.381 153.026 153.652 152.598 154.135C152.15 154.726 153.102 156.256 154.747 157.689C160.994 162.798 161.198 163.512 156.243 161.121C153.538 159.94 150.914 158.323 150.167 157.508C149.439 156.583 147.951 155.517 146.836 154.858C145.701 154.308 143.771 152.596 142.472 151.114L140.161 148.43L144.184 149.183C146.359 149.59 149.431 150.615 150.831 151.553ZM189.685 163.438C189.562 164.091 188.448 165.234 187.287 166.029C185.221 167.444 185.221 167.444 186.22 165.717C186.858 164.711 187.449 163.358 187.551 162.814C187.652 162.27 188.277 161.937 188.821 162.038C189.474 162.161 189.807 162.786 189.685 163.438ZM160.532 165.864C160.974 166.51 160.458 166.864 159.045 166.599C157.848 166.375 156.251 165.288 155.673 164.167C154.674 162.291 154.803 162.203 157.052 163.412C158.493 164.132 159.982 165.198 160.532 165.864ZM184.781 172.203C183.069 174.134 182.974 173.441 184.481 170.796C185.1 169.898 185.745 169.456 185.901 169.823C186.187 170.102 185.637 171.237 184.781 172.203ZM164.401 171.654C164.578 171.913 163.558 171.947 161.927 171.642C160.405 171.357 158.876 170.508 158.651 169.903C158.203 168.693 163.3 170.322 164.401 171.654ZM182.303 178.832C182.201 179.376 181.664 179.838 181.012 179.716C180.468 179.614 179.741 180.492 179.538 181.579C179.314 182.776 178.635 184 177.921 184.204C176.345 184.81 176.515 184.504 178.722 180.526C180.399 177.575 182.75 176.439 182.303 178.832ZM158.499 182.146C157.833 182.697 155.542 178.103 155.806 176.688C155.82 176.015 156.656 176.96 157.567 178.707C158.369 180.433 158.866 181.989 158.499 182.146ZM166.029 185.807C166.757 186.731 166.9 187.771 166.513 188.036C165.738 188.567 159.538 180.201 159.782 178.896C159.925 178.135 162.916 181.396 166.029 185.807ZM170.208 183.324C170.636 184.642 170.779 185.682 170.671 185.662C170.453 185.621 169.658 184.459 168.794 183.059C168.04 181.679 167.788 180.619 168.44 180.741C168.984 180.843 169.779 182.005 170.208 183.324ZM138.695 177.315C138.593 177.858 137.574 177.893 136.439 177.343C135.304 176.793 134.407 176.174 134.448 175.957C134.488 175.739 135.508 175.705 136.704 175.929C137.9 176.152 138.797 176.771 138.695 177.315ZM183.733 189.232C183.509 190.428 182.891 191.326 182.347 191.224C181.695 191.102 181.552 190.062 181.884 188.886C182.217 187.71 182.835 186.812 183.27 186.894C183.705 186.975 183.957 188.035 183.733 189.232ZM146.023 183.864C147.607 185.624 147.478 185.713 144.528 184.035C141.055 182.147 140.348 181.114 142.74 181.561C143.501 181.704 144.99 182.77 146.023 183.864ZM174.729 189.236C174.566 190.106 174.206 190.827 173.989 190.786C173.771 190.745 173.479 189.902 173.207 188.951C173.043 188.02 173.403 187.299 173.947 187.401C174.599 187.523 174.892 188.365 174.729 189.236ZM142.986 185.66C143.468 186.088 143.482 187.217 142.993 188.026C142.504 188.835 142.675 190.331 143.382 191.364C144.068 192.505 144.789 192.865 144.911 192.213C145.033 191.56 147.786 193.088 151.028 195.609C157.512 200.65 159.389 203.253 154.937 201.181C152.776 200.101 152.3 200.237 152.729 201.556C153.354 203.024 153.137 202.983 151.859 201.393C150.098 199.375 149.887 198.097 151.62 199.66C152.3 200.237 152.429 200.149 152.137 199.306C151.844 198.463 150.859 197.716 149.989 197.553C149.119 197.391 148.548 196.833 148.65 196.29C148.874 195.093 145.767 193.048 144.843 193.776C144.477 193.933 145.279 195.659 146.625 197.487C147.971 199.315 148.508 200.654 147.856 200.532C146.551 200.288 141.466 192.581 141.71 191.276C141.791 190.841 139.922 188.802 137.509 186.662C135.075 184.631 133.186 182.701 133.247 182.374C133.369 181.722 141.735 184.526 142.986 185.66ZM180.011 197.092C177.037 203.965 175.997 202.307 178.794 195.175C179.575 193.407 180.472 192.224 180.846 192.632C181.22 193.04 180.853 194.998 180.011 197.092ZM151.182 188.77C151.95 189.477 152.175 190.082 151.522 189.96C150.979 189.858 149.776 189.07 149.007 188.363C148.239 187.657 148.124 187.072 148.667 187.174C149.32 187.296 150.414 188.063 151.182 188.77ZM139.189 192.718C138.945 194.023 137.137 191.659 136.388 189.042L135.64 186.425L137.476 189.245C138.428 190.774 139.25 192.392 139.189 192.718ZM164.306 195.617C168.242 199.843 169.507 202.106 168.454 202.922C168.067 203.188 166.571 201.557 165.069 199.362C163.566 197.167 162.111 195.318 161.785 195.257C161.35 195.176 160.514 194.231 159.807 193.198C157.489 189.95 160.262 191.37 164.306 195.617ZM150.028 191.932C150.232 192.645 149.777 192.673 148.968 192.184C147.153 191.056 146.969 190.234 148.492 190.518C149.144 190.64 149.824 191.218 150.028 191.932ZM174.868 200.52C175.8 202.158 175.671 202.246 174.25 201.417C173.333 200.908 172.714 200.004 172.816 199.46C173.08 198.046 173.692 198.386 174.868 200.52ZM142.759 200.704C142.984 201.309 143.813 201.689 144.635 201.505C145.437 201.43 146.858 202.259 147.891 203.353C149.631 205.48 149.631 205.48 147.551 203.965C144.9 201.893 143.922 201.709 144.527 203.286C145.289 205.23 144.283 204.592 142.012 201.69C140.823 200.229 140.462 199.148 141.114 199.27C141.767 199.392 142.447 199.97 142.759 200.704ZM160.511 206.277C162.244 207.84 162.931 208.982 162.061 208.819C160.845 208.704 161.069 209.309 162.633 211.177C164.638 213.692 164 214.698 161.954 212.401C160.173 210.492 155.916 203.166 156.677 203.308C157.112 203.39 158.778 204.714 160.511 206.277ZM167.668 209.53C168.735 211.644 168.735 211.644 166.954 209.734C165.921 208.64 164.888 207.546 164.691 207.397C164.514 207.139 164.752 207.071 165.404 207.193C166.057 207.315 167.09 208.409 167.668 209.53ZM180.67 217.029C179.917 221.054 179.387 222.08 179.128 220.456C178.645 218.226 180.423 211.129 181.402 211.312C181.62 211.353 181.349 214.004 180.67 217.029ZM150.85 214.602C151.618 215.308 151.843 215.913 151.191 215.791C150.647 215.69 149.444 214.902 148.676 214.195C147.908 213.488 147.792 212.904 148.336 213.005C148.988 213.127 150.082 213.895 150.85 214.602ZM165.666 219.626C165.361 221.257 164.878 220.829 163.063 217.9C161.445 215.121 161.445 215.121 163.701 216.894C164.884 217.791 165.768 219.082 165.666 219.626ZM161.562 219.308C161.793 220.477 161.406 220.742 160.4 220.104C159.7 219.635 159.061 218.84 159.162 218.296C159.447 216.773 161.214 217.554 161.562 219.308ZM138.075 216.715C137.974 217.259 137.328 217.701 136.676 217.579C136.132 217.477 136.016 216.892 136.444 216.41C136.893 215.818 137.518 215.485 137.844 215.546C138.061 215.586 138.198 216.062 138.075 216.715ZM151.022 219.7C152.287 221.963 150.506 221.855 148.915 219.531C147.086 217.275 148.277 220.537 150.541 224.676C151.982 227.198 151.676 227.028 149.229 223.868C143.124 216.196 143.281 216.563 146.76 217.214C148.5 217.539 150.424 218.687 151.022 219.7ZM124.233 218.515C121.59 218.809 121.57 218.918 123.425 219.828C125.172 220.717 125.172 220.717 123.147 220.113C121.862 219.76 120.17 219.782 119.328 220.074C118.485 220.367 117.377 220.272 116.895 219.844C115.644 218.709 121.223 217.164 124.376 217.754L127.094 218.263L124.233 218.515ZM154.659 224.321C155.427 225.028 155.651 225.632 154.999 225.51C154.455 225.409 153.252 224.621 152.484 223.914C151.716 223.207 151.6 222.623 152.144 222.725C152.796 222.847 153.891 223.614 154.659 224.321ZM114.223 217.881C113.252 218.262 111.954 218.582 111.302 218.46C110.758 218.358 111.077 217.855 112.049 217.474C113.02 217.093 114.427 216.793 114.971 216.895C115.623 217.017 115.195 217.5 114.223 217.881ZM145.553 224.869C145.451 225.413 144.915 225.875 144.262 225.753C143.718 225.651 143.277 225.006 143.378 224.462C143.5 223.809 144.126 223.476 144.669 223.578C145.322 223.7 145.675 224.216 145.553 224.869ZM135.692 224.037C134.354 224.575 134.402 224.921 135.951 225.661C137.086 226.212 136.176 226.266 133.981 225.968C131.915 225.582 129.318 224.42 128.285 223.326C126.701 221.566 126.939 221.498 131.961 222.326C135.549 222.997 136.793 223.567 135.692 224.037ZM157.691 229.166C157.304 229.432 156.495 228.943 155.876 228.039C155.101 226.768 155.23 226.68 156.631 227.617C157.657 228.147 158.078 228.901 157.691 229.166ZM148.763 231.774C148.722 231.991 147.268 231.944 145.419 231.599C143.679 231.273 142.239 230.553 142.32 230.118C142.422 229.574 143.985 229.641 145.663 230.293C147.471 230.857 148.803 231.556 148.763 231.774ZM154.521 239.494C156.479 241.661 155.786 241.757 152.054 240.045C150.722 239.346 149.757 238.49 149.859 237.946C150.123 236.532 152.563 237.326 154.521 239.494ZM142.344 240.818C141.216 240.832 139.258 240.466 137.994 240.004C136.621 239.522 137.532 239.467 139.924 239.915C142.337 240.253 143.383 240.674 142.344 240.818ZM113.325 236.514C112.524 236.589 111.219 236.345 110.607 236.005C109.907 235.536 110.491 235.421 112.014 235.705C113.536 235.99 114.039 236.31 113.325 236.514ZM149.208 245.029C149.902 244.934 151.152 246.068 152.016 247.468C152.879 248.868 153.022 249.908 152.37 249.786C151.609 249.644 151.146 249.107 151.248 248.563C151.37 247.911 149.624 247.021 147.49 246.396C145.356 245.772 143.541 244.644 143.357 243.822C143.214 242.782 143.778 242.775 145.613 243.794C146.816 244.582 148.515 245.125 149.208 245.029ZM142.57 246.827C143.338 247.533 143.651 248.267 143.372 248.553C143.005 248.71 141.891 248.051 140.966 246.977C138.879 244.898 140.265 244.707 142.57 246.827ZM166.465 254.45C165.541 255.178 162.802 252.977 163.026 251.78C163.148 251.128 163.909 251.27 165.16 252.405C166.105 253.37 166.723 254.273 166.465 254.45ZM182.293 257.074C182.13 257.944 181.553 258.624 180.9 258.502C180.357 258.4 179.955 257.537 180.118 256.667C180.281 255.797 180.967 255.137 181.511 255.239C182.163 255.361 182.456 256.204 182.293 257.074ZM137.427 250.255C133.845 250.148 133.934 250.277 139.377 251.859L145.215 253.739L139.65 252.81C135.824 252.207 133.621 251.344 132.955 250.094C132.024 248.456 132.499 248.32 136.591 249.311C141.246 250.294 141.246 250.294 137.427 250.255ZM174.893 258.729C174.404 259.538 174.139 259.151 174.363 257.954C174.478 256.738 174.926 256.146 175.171 256.642C175.436 257.029 175.362 258.029 174.893 258.729ZM137.992 255.652C138.251 257.277 138.122 257.365 136.932 255.904C135.369 254.036 135.273 253.342 136.687 253.607C137.231 253.708 137.849 254.612 137.992 255.652ZM152.516 259.833C152.414 260.377 153.379 261.233 154.623 261.804C155.846 262.483 156.506 263.169 155.989 263.523C155.473 263.877 155.507 264.896 156.017 265.78C156.616 266.792 156.493 267.445 155.522 267.826C154.917 268.051 154.414 267.732 154.536 267.079C154.821 265.556 150.328 260.099 148.37 259.733C147.718 259.611 146.821 258.993 146.467 258.476C146.114 257.96 147.371 257.858 149.219 258.203C151.177 258.57 152.617 259.29 152.516 259.833ZM144.003 266.234C146.171 267.878 148.489 269.325 149.25 269.467C150.011 269.61 150.582 270.167 150.46 270.819C150.134 272.56 148.476 271.799 143.806 267.886C139.225 264.101 136.629 262.94 137.479 265.013C138.016 266.352 135.583 266.122 133.157 264.655C130.227 262.868 131.797 261.698 136.037 262.492C138.321 262.919 141.835 264.59 144.003 266.234ZM125.668 264.379C125.41 264.556 123.371 264.625 121.224 264.673C118.424 264.6 117.792 264.369 119.13 263.831C120.836 263.137 126.938 263.604 125.668 264.379ZM156.624 270.96C157.494 272.924 156.346 273.047 155.149 271.021C154.551 270.009 154.564 269.336 155.108 269.437C155.651 269.539 156.42 270.246 156.624 270.96ZM136.325 268.175C137.093 268.881 137.317 269.486 136.665 269.364C136.121 269.262 134.918 268.474 134.15 267.768C133.382 267.061 133.266 266.476 133.81 266.578C134.462 266.7 135.556 267.468 136.325 268.175ZM155.926 277.696C155.804 278.349 155.063 278.098 154.335 277.174C153.608 276.249 153.05 275.019 153.152 274.475C153.274 273.823 154.015 274.074 154.743 274.998C155.47 275.922 156.028 277.153 155.926 277.696ZM151.878 285.495C150.234 285.863 150.458 286.468 153.306 288.69C155.148 290.273 156.644 291.903 156.542 292.447C156.461 292.882 156.923 293.419 157.575 293.541C158.228 293.663 158.628 292.725 158.37 291.101C158.083 289.021 158.478 289.319 160.341 292.595C161.605 294.858 163.543 297.135 164.569 297.664C165.684 298.323 166.52 299.268 166.418 299.812C166.296 300.464 165.338 300.173 164.175 299.167C162.993 298.27 160.94 297.211 159.676 296.749C158.392 296.396 156.155 294.514 154.7 292.666C153.266 290.709 151.227 288.976 150.248 288.793C149.161 288.589 148.393 287.883 148.494 287.339C148.617 286.686 148.046 286.129 147.176 285.966C146.306 285.804 145.32 285.056 145.096 284.451C144.783 283.717 146.495 283.587 149.302 284.225C152.238 284.775 153.156 285.284 151.878 285.495ZM135.842 288.799C135.801 289.017 134.822 288.834 133.687 288.283C132.552 287.733 131.696 286.898 131.818 286.245C131.92 285.701 132.878 285.993 133.952 286.869C135.026 287.746 135.882 288.582 135.842 288.799ZM125.323 290.884C123.984 291.421 123.923 291.748 124.902 291.931C127.403 292.399 124.862 293.95 121.348 294.081C119.419 294.17 118.08 294.707 118.413 295.333C118.638 295.938 119.684 296.359 120.704 296.324C121.852 296.201 123.334 296.704 124.102 297.41C125.155 298.395 124.768 298.661 122.267 298.193C120.527 297.867 116.987 297.543 114.513 297.53L110.15 297.389L114.519 294.491C118.888 291.594 124.004 289.511 126.07 289.898C126.722 290.02 126.294 290.503 125.323 290.884ZM136.196 292.918C133.335 293.171 133.512 293.429 137.903 295.827C138.712 296.316 136.843 296.079 133.69 295.489C128.076 294.214 127.967 294.193 130.726 292.683C132.105 291.928 134.66 291.505 136.271 291.919L139.077 292.557L136.196 292.918ZM144.535 295.267C143.407 295.281 141.667 294.955 140.729 294.555C139.703 294.025 140.614 293.97 142.68 294.357C144.746 294.743 145.575 295.124 144.535 295.267ZM152.738 298.941C152.351 299.206 151.352 299.132 150.652 298.663C149.843 298.174 150.231 297.909 151.427 298.132C152.643 298.247 153.234 298.696 152.738 298.941ZM122.982 303.393C122.038 304.229 121.087 304.502 120.713 304.094C120.448 303.707 121.025 303.027 121.997 302.645C124.565 301.55 124.851 301.828 122.982 303.393Z" fill="white" fill-opacity="0.2"/>
</svg>
