<svg width="320" height="319" viewBox="0 0 320 319" fill="none" xmlns="http://www.w3.org/2000/svg">
<path d="M289.618 162.12L289.093 165.985L299.541 167.402L304.028 172.898L286.91 182.081L286.311 186.497L306.327 175.719L316.373 188.067L316.661 185.944L302.089 167.748L318.821 170.018L319.346 166.153L289.618 162.12Z" fill="white"/>
<path d="M285.374 216.118L275.637 216.359L273.975 220.169L307.059 219.358L307.916 217.394L285.49 193.771L284.702 195.578L291.286 202.565L285.374 216.118ZM287.502 216.064L292.729 204.083L303.499 215.514L303.431 215.671L287.502 216.064Z" fill="white"/>
<path d="M284.377 258.182L281.856 255.987L282.813 254.888C284.164 253.336 285.117 251.741 285.672 250.103C286.208 248.486 286.423 246.912 286.317 245.38C286.192 243.87 285.791 242.46 285.113 241.15C284.435 239.84 283.547 238.707 282.448 237.75C281.607 237.018 280.54 236.373 279.246 235.814C277.954 235.296 276.54 235.05 275.003 235.075C273.446 235.122 271.805 235.549 270.079 236.357C268.353 237.165 266.636 238.55 264.929 240.511L264.563 240.931L261.751 238.483L259.19 241.424L262.002 243.872L261.608 244.325C259.901 246.286 258.775 248.166 258.231 249.966C257.669 251.787 257.471 253.471 257.639 255.019C257.807 256.567 258.246 257.934 258.956 259.12C259.668 260.346 260.445 261.325 261.285 262.057C262.384 263.014 263.639 263.727 265.048 264.197C266.439 264.688 267.9 264.88 269.432 264.774C270.945 264.69 272.465 264.271 273.993 263.517C275.52 262.764 276.959 261.611 278.31 260.059L279.295 258.928L281.816 261.123L284.377 258.182ZM265.856 242.057L266.025 241.863C266.982 240.764 268.037 239.921 269.191 239.335C270.367 238.768 271.56 238.442 272.769 238.358C274 238.294 275.217 238.463 276.419 238.865C277.603 239.29 278.712 239.952 279.746 240.853C280.608 241.603 281.368 242.492 282.027 243.52C282.666 244.57 283.087 245.675 283.289 246.835C283.472 248.017 283.385 249.249 283.028 250.529C282.692 251.828 281.971 253.113 280.864 254.385L280.499 254.805L265.856 242.057ZM263.295 244.998L277.938 257.746L277.544 258.199C276.437 259.47 275.263 260.361 274.023 260.872C272.804 261.402 271.605 261.647 270.428 261.607C269.232 261.589 268.08 261.324 266.971 260.813C265.844 260.324 264.849 259.705 263.987 258.954C262.953 258.054 262.153 257.036 261.588 255.9C261.005 254.786 260.661 253.615 260.556 252.387C260.472 251.178 260.63 249.952 261.03 248.709C261.452 247.485 262.141 246.323 263.098 245.224L263.295 244.998Z" fill="white"/>
<path d="M255.541 286.632L239.436 261.321L223.093 271.72L224.358 273.709L237.411 265.403L244.106 275.926L232.897 283.058L234.001 284.793L245.211 277.661L250.985 286.737L237.932 295.043L239.197 297.031L255.541 286.632Z" fill="white"/>
<path d="M177.911 317.17L203.332 313.023L198.503 283.414L194.653 284.042L199.103 311.325L181.38 314.216L176.93 286.933L173.081 287.561L177.911 317.17Z" fill="white"/>
<path d="M138.87 295.194L136.016 285.881L131.899 285.306L141.589 316.95L143.711 317.246L160.422 289.287L158.47 289.015L153.514 297.238L138.87 295.194ZM139.495 297.228L152.441 299.035L144.332 312.486L144.163 312.463L139.495 297.228Z" fill="white"/>
<path d="M112.813 292.706C112.208 292.23 111.54 291.758 110.808 291.29C110.065 290.848 109.22 290.425 108.274 290.02C106.672 289.336 105.158 288.953 103.732 288.871C102.306 288.79 101.023 288.957 99.8832 289.371C98.7056 289.799 97.6933 290.423 96.8462 291.242C95.9879 292.087 95.3118 293.087 94.8177 294.243C94.3461 295.347 94.0809 296.476 94.0221 297.632C93.952 298.814 94.1407 299.935 94.5882 300.997C94.9982 302.073 95.6727 303.076 96.6115 304.005C97.5504 304.935 98.7817 305.725 100.306 306.376L109.527 310.318L121.317 282.731L117.731 281.198L112.813 292.706ZM106.682 307.051L102.544 305.282C101.441 304.811 100.553 304.198 99.8805 303.445C99.2082 302.691 98.7366 301.868 98.4655 300.976C98.1833 300.11 98.0848 299.213 98.1702 298.286C98.218 297.375 98.4104 296.525 98.7472 295.736C99.0728 294.974 99.5354 294.256 100.135 293.58C100.697 292.919 101.389 292.391 102.21 291.996C103.031 291.601 103.946 291.387 104.956 291.352C105.965 291.317 107.06 291.552 108.243 292.058C109.057 292.406 109.795 292.752 110.455 293.097C111.105 293.467 111.66 293.876 112.122 294.322L106.682 307.051Z" fill="white"/>
<path d="M91.5911 269.256L88.5318 266.837L81.9928 275.107L74.9776 276.171L75.7903 256.763L72.2939 253.998L71.3797 276.714L55.6371 279.073L57.3181 280.402L80.398 277.124L69.9251 290.37L72.9844 292.789L91.5911 269.256Z" fill="white"/>
<path d="M54.2705 234.142L52.3868 230.727L43.1552 235.819L36.2753 234.083L44.5411 216.504L42.3883 212.601L32.748 233.19L17.3203 229.268L18.3554 231.145L40.9036 237.061L26.1182 245.217L28.002 248.632L54.2705 234.142Z" fill="white"/>
<path d="M25.4844 188.298L33.1628 182.305L32.2287 178.255L6.13489 198.61L6.61638 200.698L38.6999 206.318L38.257 204.397L28.8067 202.706L25.4844 188.298ZM23.8073 189.609L26.7444 202.346L11.2841 199.578L11.2455 199.41L23.8073 189.609Z" fill="white"/>
<path d="M1.16617 153.922L4.49911 154.18L4.38681 155.633C4.22827 157.684 4.41493 159.532 4.94681 161.178C5.4809 162.796 6.24735 164.187 7.24617 165.354C8.24719 166.491 9.41046 167.384 10.736 168.031C12.0615 168.677 13.4507 169.057 14.9035 169.169C16.0145 169.255 17.2559 169.136 18.6278 168.813C19.9735 168.458 21.2556 167.812 22.4744 166.875C23.6953 165.909 24.7575 164.587 25.661 162.908C26.5644 161.23 27.1164 159.095 27.3168 156.503L27.3597 155.947L31.0772 156.234L31.3778 152.346L27.6603 152.059L27.7065 151.46C27.9069 148.868 27.6886 146.688 27.0516 144.919C26.4167 143.122 25.5703 141.652 24.5123 140.51C23.4543 139.368 22.2867 138.533 21.0093 138.004C19.7057 137.445 18.4984 137.122 17.3874 137.036C15.9345 136.924 14.5024 137.1 13.091 137.564C11.6818 138 10.3942 138.717 9.22798 139.716C8.06401 140.686 7.09387 141.929 6.31757 143.445C5.54126 144.961 5.07384 146.745 4.91529 148.796L4.79969 150.292L1.46674 150.034L1.16617 153.922ZM25.6505 155.815L25.6307 156.071C25.5184 157.524 25.1738 158.83 24.5971 159.989C23.9918 161.146 23.2289 162.119 22.3082 162.907C21.3591 163.693 20.2818 164.284 19.0764 164.678C17.8732 165.043 16.588 165.173 15.2206 165.067C14.0811 164.979 12.9406 164.719 11.7991 164.287C10.6598 163.826 9.66294 163.191 8.80862 162.379C7.9565 161.54 7.29181 160.5 6.81456 159.259C6.30883 158.017 6.12092 156.555 6.25084 154.874L6.29377 154.319L25.6505 155.815ZM25.9511 151.927L6.59435 150.43L6.64059 149.832C6.77051 148.151 7.18082 146.736 7.87153 145.586C8.53375 144.433 9.34927 143.522 10.3181 142.852C11.2891 142.153 12.3718 141.678 13.5662 141.426C14.7628 141.146 15.9308 141.05 17.0703 141.138C18.4376 141.244 19.6866 141.584 20.8171 142.159C21.9498 142.705 22.9247 143.439 23.7417 144.362C24.5303 145.283 25.1347 146.361 25.555 147.597C25.9467 148.831 26.0865 150.175 25.9742 151.627L25.9511 151.927Z" fill="white"/>
<path d="M7.27539 113.925L35.2836 124.675L42.2248 106.59L40.0242 105.745L34.4804 120.189L22.837 115.72L27.5976 103.317L25.677 102.58L20.9164 114.983L10.8735 111.129L16.4173 96.6844L14.2166 95.8398L7.27539 113.925Z" fill="white"/>
<path d="M51.5169 42.9892L33.5703 61.4652L55.0897 82.3681L57.8071 79.5706L37.9785 60.3101L50.4904 47.4291L70.319 66.6896L73.0364 63.8921L51.5169 42.9892Z" fill="white"/>
<path d="M95.0862 37.8049L102.953 43.5481L106.593 41.5401L79.869 22.02L77.9926 23.055L81.3754 55.4511L83.1016 54.4988L82.1395 44.9467L95.0862 37.8049ZM93.3666 36.5509L81.921 42.8647L80.3486 27.2373L80.4988 27.1545L93.3666 36.5509Z" fill="white"/>
<path d="M117.159 24.1394C117.928 24.1586 118.746 24.1366 119.613 24.0733C120.473 23.9822 121.403 23.8154 122.402 23.5729C124.096 23.1619 125.538 22.5621 126.729 21.7734C127.919 20.9847 128.847 20.0833 129.512 19.0693C130.199 18.0207 130.636 16.9149 130.824 15.752C131.006 14.5614 130.948 13.3552 130.652 12.1335C130.369 10.9673 129.905 9.90383 129.26 8.94304C128.609 7.95449 127.786 7.16919 126.792 6.58712C125.819 5.97056 124.679 5.57112 123.37 5.3888C122.062 5.20648 120.602 5.31071 118.992 5.70147L109.246 8.06628L116.32 37.2206L120.11 36.3009L117.159 24.1394ZM113.481 8.97919L117.854 7.91806C119.02 7.63509 120.098 7.59405 121.088 7.79495C122.077 7.99584 122.948 8.37262 123.699 8.92529C124.444 9.45018 125.06 10.1093 125.546 10.9027C126.054 11.6616 126.409 12.4575 126.611 13.2905C126.806 14.0957 126.866 14.9485 126.79 15.8488C126.736 16.7147 126.498 17.5515 126.077 18.3594C125.655 19.1673 125.051 19.8872 124.263 20.5193C123.476 21.1514 122.457 21.619 121.208 21.9222C120.347 22.1311 119.549 22.2953 118.814 22.415C118.072 22.5068 117.382 22.5124 116.745 22.4318L113.481 8.97919Z" fill="white"/>
<path d="M149.066 29.986L152.964 30.1064L153.29 19.5684L158.29 14.5347L169.199 30.6078L173.655 30.7454L160.857 11.9555L172.096 0.682716L169.954 0.616561L153.369 16.9982L153.89 0.120401L149.992 0L149.066 29.986Z" fill="white"/>
<path d="M200.03 35.7978L203.575 37.4235L207.97 27.8402L214.533 25.1452L218.339 44.1943L222.391 46.0522L217.9 23.766L232.637 17.7465L230.689 16.8532L209.041 25.5028L216.08 10.1539L212.535 8.5282L200.03 35.7978Z" fill="white"/>
<path d="M250.475 55.4385L247.883 64.8276L251.048 67.5229L259.862 35.6241L258.23 34.2348L229.121 48.85L230.622 50.1282L239.218 45.8519L250.475 55.4385ZM251.04 53.3866L241.088 44.9116L255.151 37.917L255.281 38.0281L251.04 53.3866Z" fill="white"/>
<path d="M290.492 68.3385L287.665 70.1226L286.887 68.8904C285.789 67.1507 284.535 65.7797 283.126 64.7774C281.731 63.7992 280.285 63.1408 278.788 62.8021C277.305 62.4876 275.839 62.4667 274.39 62.7396C272.94 63.0125 271.599 63.5378 270.367 64.3155C269.425 64.9102 268.5 65.7472 267.593 66.8263C266.726 67.9144 266.083 69.1983 265.666 70.6781C265.264 72.1821 265.201 73.8768 265.479 75.7625C265.757 77.6481 266.59 79.6902 267.977 81.889L268.275 82.3601L265.122 84.3502L267.203 87.6483L270.356 85.6583L270.677 86.1657C272.064 88.3644 273.542 89.9828 275.109 91.0208C276.692 92.0829 278.248 92.756 279.779 93.04C281.31 93.3241 282.745 93.2966 284.085 92.9575C285.465 92.6274 286.626 92.165 287.568 91.5703C288.8 90.7926 289.844 89.7961 290.699 88.5809C291.569 87.3899 292.173 86.0455 292.512 84.5479C292.866 83.0744 292.901 81.4979 292.618 79.8182C292.335 78.1386 291.645 76.4289 290.547 74.6893L289.746 73.4208L292.573 71.6366L290.492 68.3385ZM269.724 81.4452L269.587 81.2277C268.81 79.9955 268.306 78.7423 268.076 77.4683C267.871 76.179 267.901 74.9432 268.169 73.7608C268.46 72.5632 268.972 71.4465 269.703 70.4105C270.45 69.3987 271.403 68.5268 272.563 67.7948C273.529 67.1849 274.599 66.7123 275.773 66.377C276.962 66.0659 278.141 65.9804 279.311 66.1207C280.496 66.2851 281.65 66.7222 282.774 67.432C283.922 68.1266 284.945 69.1866 285.845 70.6122L286.143 71.0833L269.724 81.4452ZM271.806 84.7433L288.224 74.3815L288.544 74.8889C289.444 76.3144 289.96 77.6947 290.093 79.0298C290.251 80.3496 290.141 81.5675 289.764 82.6837C289.403 83.8241 288.818 84.8518 288.011 85.767C287.218 86.7063 286.339 87.481 285.372 88.0909C284.212 88.8229 283.008 89.2961 281.758 89.5106C280.523 89.7492 279.303 89.7424 278.096 89.4903C276.914 89.2229 275.785 88.7191 274.71 87.9787C273.658 87.2232 272.744 86.2293 271.966 84.997L271.806 84.7433Z" fill="white"/>
<path d="M309.664 104.491L280.769 112.558L285.977 131.216L288.247 130.582L284.087 115.68L296.1 112.327L299.672 125.124L301.653 124.57L298.081 111.774L308.442 108.882L312.602 123.783L314.873 123.15L309.664 104.491Z" fill="white"/>
</svg>
