<svg width="115" height="23" viewBox="0 0 115 23" fill="none" xmlns="http://www.w3.org/2000/svg">
<path d="M4.71039 0.307085C2.94418 0.848991 1.71988 2.67541 2.06108 4.26098C2.28186 5.32472 3.06461 6.66945 3.92764 7.51241L4.75053 8.29516V10.2019V12.1086L4.08821 11.4663C3.44595 10.8441 3.40581 10.8241 3.08468 11.1853C2.76355 11.5265 2.80369 11.6068 3.74701 12.5301L4.75053 13.5135V16.2832C4.75053 18.9125 4.7706 19.053 5.15195 19.053C5.55336 19.053 5.55336 18.9125 5.55336 13.4332V7.83354L4.61004 6.87016C3.10475 5.30465 2.60299 3.81943 3.22517 2.6152C3.58644 1.91273 3.8875 1.69195 4.85089 1.27047L5.61357 0.949343L5.29244 1.45111C4.50969 2.67541 4.69032 4.42155 5.87449 6.95044L6.55688 8.37545V13.7142C6.55688 18.9125 6.57695 19.053 6.95829 19.053C7.35971 19.053 7.35971 18.9125 7.35971 13.4533V7.85361L6.65724 6.38846C5.49314 3.89971 5.47307 2.29407 6.6171 1.5916C7.94175 0.768709 10.1094 1.29054 10.5911 2.55499C10.8921 3.31767 10.6914 5.66592 10.1897 7.19128C9.84845 8.23495 9.76817 8.95749 9.76817 11.085V13.7142L8.78472 12.7508C8.12239 12.1086 7.76112 11.8677 7.66076 12.0283C7.56041 12.1688 7.94175 12.7107 8.64422 13.4132L9.76817 14.5572V16.8051C9.76817 18.6516 9.82838 19.053 10.0692 19.053C10.3101 19.053 10.3703 18.21 10.4104 13.373C10.4706 8.1346 10.5108 7.5927 10.9724 5.94691C11.3738 4.46169 11.414 4.02014 11.2534 3.19724L11.0527 2.23386L11.5545 2.43456C11.8354 2.55499 12.5379 2.69548 13.0798 2.77576C14.0231 2.89619 14.0833 2.93633 14.1436 3.53844C14.2238 4.36134 13.8224 5.10395 12.4777 6.70959L11.3738 7.99411V13.5336V19.053H12.0763C12.7587 19.053 12.7788 19.0329 12.7788 18.2702C12.7788 17.5878 12.9192 17.347 13.7221 16.5642C14.6453 15.7012 14.6654 15.641 14.3443 15.2998C14.0031 14.9787 13.9629 14.9787 13.5214 15.4001C13.2604 15.641 12.9995 15.8417 12.9192 15.8417C12.839 15.8417 12.7788 14.216 12.7788 12.2089V8.57615L13.8224 7.33178C15.1672 5.72613 15.6488 4.64232 15.5485 3.37788C15.4883 2.4747 15.5284 2.39442 15.9499 2.39442C16.7929 2.39442 17.7763 2.93633 17.9168 3.47823C18.0573 4.08035 17.2946 5.86663 16.3915 7.01065L15.7893 7.77333V13.4132C15.7893 18.9125 15.7893 19.053 16.1907 19.053C16.5721 19.053 16.5922 18.9125 16.5922 13.7142V8.37545L17.2946 7.41206C18.7397 5.44515 19.2013 3.55851 18.5189 2.49478C18.1978 2.01308 18.2179 1.99301 18.5591 1.99301C19.0809 1.99301 19.9439 2.89619 20.1045 3.61873C20.2851 4.44162 19.4422 6.14762 18.3985 7.09093L17.5957 7.81347V13.4332V19.053H18.0975H18.5992V16.2832V13.5135L19.6027 12.5301C20.1446 12.0082 20.5461 11.4663 20.4658 11.366C20.4056 11.2656 19.964 11.5667 19.4823 12.0484L18.5992 12.9114V10.6033V8.27509L19.402 7.41206C21.3489 5.30465 21.5496 3.11696 19.9239 1.61167C19.2013 0.929274 17.8365 0.848991 15.9298 1.37082C13.7421 1.97294 12.7587 1.91273 11.1731 1.17012C8.68436 -0.0140438 6.65724 -0.295031 4.71039 0.307085Z" fill="white"/>
<path d="M9.08535 3.11669C8.64379 3.27726 8.12196 3.53817 7.94132 3.71881C7.51984 4.08008 6.83744 5.74594 7.01808 5.92657C7.23885 6.14735 8.38288 5.76601 9.00506 5.24417C9.60718 4.72234 10.1692 3.71881 10.1692 3.09662C10.1692 2.73535 10.1089 2.73535 9.08535 3.11669Z" fill="white"/>
<path d="M0.857847 7.55218C1.13883 8.75641 2.323 10.2216 3.0054 10.2216C3.14589 10.2216 3.44695 10.2818 3.70787 10.342C4.06914 10.4423 4.14942 10.3821 4.14942 10.0008C4.14942 9.11768 3.30645 7.93352 2.34307 7.45183C1.09869 6.82964 0.697283 6.84971 0.857847 7.55218Z" fill="white"/>
<path d="M13.1816 10.001C13.1816 10.8038 14.3658 12.0281 15.1486 12.0281C15.6302 12.0281 15.3894 11.1851 14.707 10.5027C14.0647 9.86046 13.1816 9.57947 13.1816 10.001Z" fill="white"/>
<path d="M20.8472 13.7341C19.9842 14.1355 19.7233 14.3763 19.4022 15.0788C18.6997 16.6042 18.9205 16.9454 20.2652 16.3633C21.0881 16.0221 21.8909 15.1189 22.192 14.2559C22.5934 13.0316 22.473 12.9714 20.8472 13.7341Z" fill="white"/>
<path d="M6.15625 21.0599V22.0635H11.5753H16.9943V21.0599V20.0564H11.5753H6.15625V21.0599Z" fill="white"/>
<path d="M31.1055 0.733421C31.1055 0.967777 31.4336 1.20213 31.8085 1.20213C32.4179 1.20213 32.5116 2.60827 32.5116 10.8576C32.5116 19.5288 32.4179 20.6068 31.7148 21.1692C31.0117 21.6848 31.5273 21.7786 35.2301 21.8254C38.0424 21.8254 39.4954 21.638 39.3079 21.3567C39.1673 21.0755 38.6986 20.888 38.3236 20.888C37.7612 20.888 37.6674 19.2944 37.6674 11.0451V1.20213H40.9484H44.2294V11.0451C44.2294 19.2944 44.1356 20.888 43.5732 20.888C43.1982 20.888 42.7295 21.0755 42.5889 21.3567C42.4014 21.638 43.9482 21.8254 46.901 21.7786C50.557 21.7786 51.2601 21.638 50.4632 21.263C49.3852 20.7474 49.3852 20.6537 49.3852 10.9513C49.3852 2.60827 49.479 1.20213 50.0883 1.20213C50.4632 1.20213 50.7913 0.967777 50.7913 0.733421C50.7913 0.452194 47.1823 0.264709 40.9484 0.264709C34.7145 0.264709 31.1055 0.452194 31.1055 0.733421Z" fill="white"/>
<path d="M58.5255 10.342C55.0571 18.7319 54.1665 20.513 53.276 20.7005C51.3074 21.2161 52.1511 21.8254 54.7759 21.8254C56.182 21.8254 57.3538 21.5911 57.3538 21.3567C57.3538 21.0755 57.0725 20.888 56.6976 20.888C55.4789 20.888 55.3852 19.9975 56.3695 17.8414L57.3069 15.7322H61.0097H64.7125L65.5093 17.8414C66.6811 20.8411 68.1341 21.8254 71.3682 21.8254C73.9462 21.8254 73.9462 21.7786 73.0087 20.9818C72.4463 20.5599 70.2433 15.8728 67.8998 10.2014C65.6031 4.76434 63.4939 0.264709 63.2127 0.264709C62.9314 0.264709 60.8222 4.81121 58.5255 10.342ZM62.6971 10.9982C63.3533 12.6856 63.9157 14.1854 63.9157 14.4198C63.9157 14.6073 62.5565 14.7948 60.8691 14.7948C59.1817 14.7948 57.8225 14.701 57.8225 14.5604C57.8225 13.6699 60.8691 7.34225 61.1503 7.62348C61.3378 7.81097 62.0409 9.35771 62.6971 10.9982Z" fill="white"/>
<path d="M74.6953 0.686697C74.6953 0.967924 75.1172 1.20228 75.6327 1.20228C76.5233 1.20228 76.5702 1.53038 76.5702 11.0452C76.5702 19.2945 76.4764 20.8882 75.914 20.8882C75.539 20.8882 75.0703 21.0756 74.9297 21.3569C74.7422 21.6381 76.2889 21.8256 79.2418 21.7787C82.8978 21.7787 83.6008 21.6381 82.804 21.2631C81.8197 20.7944 81.726 20.4194 81.726 17.0447V13.3888H84.2102C89.8816 13.3888 92.5063 11.3733 92.5063 7.10804C92.5063 4.15516 91.3814 2.42093 88.8035 1.29602C86.6475 0.40547 74.6953 -0.156982 74.6953 0.686697ZM86.0381 2.60841C87.3974 3.96768 87.4443 4.20203 87.2568 7.29553C87.0693 11.0921 86.2256 12.3107 83.4602 12.7795L81.726 13.0607V7.10804V1.20228H83.179C84.1633 1.20228 85.0538 1.67099 86.0381 2.60841Z" fill="white"/>
<path d="M95.3184 0.733421C95.3184 0.967777 95.7402 1.20213 96.2558 1.20213C97.1463 1.20213 97.1932 1.53023 97.1932 11.0451C97.1932 19.2944 97.0995 20.888 96.537 20.888C96.162 20.888 95.6933 21.0755 95.5527 21.3567C95.3652 21.638 96.8182 21.8254 99.6305 21.8254C103.333 21.7786 103.849 21.6848 103.193 21.1692C102.49 20.6537 102.349 19.7631 102.349 15.7791V11.0451H103.661C104.88 11.0451 105.021 11.2794 106.474 15.7322C108.302 21.2161 108.911 21.8254 112.661 21.8254C114.91 21.7786 115.145 21.7317 114.395 21.1692C113.973 20.8411 112.942 18.6851 112.192 16.4353C110.598 11.7013 109.848 10.717 107.692 10.2951C106.239 10.0139 106.192 9.96704 106.802 8.98274C107.13 8.46716 107.739 6.73293 108.161 5.23305C108.536 3.6863 109.192 2.13955 109.567 1.71772C110.27 1.06152 110.317 1.20213 110.317 3.21759C110.317 5.23305 110.411 5.42054 111.395 5.42054C112.614 5.42054 114.067 4.10814 114.067 3.03011C114.067 1.5771 112.661 0.264709 111.067 0.264709C109.052 0.264709 108.255 1.249 107.271 4.95182C106.333 8.37342 105.068 10.1077 103.427 10.1077C102.396 10.1077 102.349 10.0139 102.349 5.65489C102.349 1.99894 102.49 1.20213 103.052 1.20213C103.427 1.20213 103.755 0.967777 103.755 0.733421C103.755 0.452194 102.021 0.264709 99.5368 0.264709C97.0526 0.264709 95.3184 0.452194 95.3184 0.733421Z" fill="white"/>
</svg>
