<svg width="186" height="57" viewBox="0 0 186 57" fill="none" xmlns="http://www.w3.org/2000/svg">
<path d="M9.74938 0.770386C5.31935 2.1296 2.24854 6.71065 3.10434 10.6876C3.6581 13.3557 5.6214 16.7285 7.78607 18.8429L9.85006 20.8062V25.5886V30.371L8.1888 28.7601C6.57788 27.1995 6.4772 27.1492 5.67174 28.0553C4.86628 28.9111 4.96697 29.1125 7.333 31.4282L9.85006 33.8949V40.842C9.85006 47.4367 9.9004 47.7891 10.8569 47.7891C11.8637 47.7891 11.8637 47.4367 11.8637 33.6935V19.6483L9.49767 17.232C5.72208 13.3053 4.46355 9.58009 6.02413 6.55962C6.93027 4.79768 7.68539 4.24393 10.1018 3.18676L12.0147 2.3813L11.2093 3.63983C9.24597 6.71065 9.69904 11.0903 12.6692 17.4333L14.3808 21.0075V34.3983C14.3808 47.4367 14.4311 47.7891 15.3876 47.7891C16.3944 47.7891 16.3944 47.4367 16.3944 33.7439V19.6987L14.6325 16.0238C11.7127 9.78146 11.6623 5.75416 14.5318 3.99222C17.8543 1.92823 23.2912 3.2371 24.4994 6.4086C25.2545 8.32156 24.7511 14.2115 23.4925 18.0374C22.6367 20.6552 22.4354 22.4674 22.4354 27.8036V34.3983L19.9686 31.9819C18.3074 30.371 17.4012 29.7669 17.1495 30.1696C16.8978 30.522 17.8543 31.8812 19.6163 33.6432L22.4354 36.5126V42.1508C22.4354 46.7822 22.5864 47.7891 23.1905 47.7891C23.7946 47.7891 23.9456 45.6747 24.0463 33.5425C24.1973 20.4035 24.298 19.0442 25.4558 14.9163C26.4627 11.191 26.5633 10.0835 26.1606 8.01952L25.6572 5.60314L26.9157 6.10655C27.6205 6.4086 29.3824 6.76099 30.7417 6.96235C33.1077 7.2644 33.2587 7.36508 33.4097 8.87532C33.6111 10.9393 32.6043 12.8019 29.2314 16.8292L26.4627 20.0511V33.9452V47.7891H28.2246C29.9362 47.7891 29.9865 47.7387 29.9865 45.8258C29.9865 44.1142 30.3389 43.5101 32.3526 41.5468C34.6683 39.3821 34.7186 39.2311 33.9132 38.3753C33.0574 37.5698 32.9567 37.5698 31.8492 38.627C31.1947 39.2311 30.5403 39.7345 30.3389 39.7345C30.1376 39.7345 29.9865 35.6568 29.9865 30.6227V21.511L32.6043 18.3898C35.9771 14.3625 37.1853 11.6441 36.9336 8.47259C36.7826 6.20723 36.8833 6.00587 37.9405 6.00587C40.0548 6.00587 42.5215 7.36508 42.8739 8.72429C43.2263 10.2345 41.3133 14.7149 39.048 17.5843L37.5377 19.4973V33.6432C37.5377 47.4367 37.5377 47.7891 38.5445 47.7891C39.501 47.7891 39.5514 47.4367 39.5514 34.3983V21.0075L41.3133 18.5912C44.9379 13.6577 46.0957 8.92566 44.3841 6.25758C43.5787 5.04939 43.629 4.99905 44.4848 4.99905C45.7937 4.99905 47.9584 7.2644 48.3611 9.07668C48.8142 11.1407 46.6998 15.4197 44.0821 17.7857L42.0684 19.598V33.6935V47.7891H43.327H44.5855V40.842V33.8949L47.1026 31.4282C48.4618 30.1193 49.4686 28.7601 49.2672 28.5084C49.1162 28.2567 48.0087 29.0118 46.8005 30.22L44.5855 32.3847V26.5954V20.7558L46.5991 18.5912C51.4822 13.3053 51.9856 7.81815 47.908 4.04256C46.0957 2.33096 42.6725 2.1296 37.8901 3.43847C32.4029 4.9487 29.9362 4.79768 25.9592 2.93505C19.7169 -0.0350723 14.6325 -0.739849 9.74938 0.770386Z" fill="white"/>
<path d="M20.7247 7.8183C19.6172 8.22103 18.3083 8.87547 17.8553 9.32854C16.7981 10.2347 15.0865 14.413 15.5396 14.8661C16.0933 15.4198 18.9628 14.4633 20.5234 13.1545C22.0336 11.8456 23.4431 9.32854 23.4431 7.76796C23.4431 6.86182 23.2921 6.86182 20.7247 7.8183Z" fill="white"/>
<path d="M0.0843473 18.9435C0.789124 21.964 3.75925 25.6389 5.47086 25.6389C5.82324 25.6389 6.57836 25.7899 7.2328 25.9409C8.13894 26.1926 8.3403 26.0416 8.3403 25.0851C8.3403 22.8701 6.22597 19.9 3.8096 18.6918C0.688442 17.1312 -0.318382 17.1815 0.0843473 18.9435Z" fill="white"/>
<path d="M30.9941 25.0855C30.9941 27.0991 33.9643 30.1699 35.9276 30.1699C37.1358 30.1699 36.5317 28.0556 34.8201 26.344C33.2092 24.7331 30.9941 24.0283 30.9941 25.0855Z" fill="white"/>
<path d="M50.225 34.4486C48.0603 35.4554 47.4059 36.0595 46.6004 37.8215C44.8385 41.6474 45.3922 42.5032 48.7651 41.0433C50.8291 40.1875 52.8427 37.9222 53.5978 35.7575C54.6047 32.6867 54.3026 32.5357 50.225 34.4486Z" fill="white"/>
<path d="M13.375 52.8233V55.3403H26.9671H40.5592V52.8233V50.3062H26.9671H13.375V52.8233Z" fill="white"/>
<path d="M62 6.15299C62 6.5003 62.4862 6.8476 63.0419 6.8476C63.9449 6.8476 64.0838 8.93141 64.0838 21.1564C64.0838 34.0066 63.9449 35.6042 62.903 36.4377C61.8611 37.2018 62.6251 37.3407 68.1125 37.4102C72.2801 37.4102 74.4334 37.1323 74.1556 36.7156C73.9472 36.2988 73.2526 36.0209 72.6969 36.0209C71.8634 36.0209 71.7245 33.6593 71.7245 21.4343V6.8476H76.5867H81.4489V21.4343C81.4489 33.6593 81.31 36.0209 80.4765 36.0209C79.9208 36.0209 79.2262 36.2988 79.0178 36.7156C78.7399 37.1323 81.0321 37.4102 85.4081 37.3407C90.826 37.3407 91.868 37.1323 90.6871 36.5766C89.0895 35.8126 89.0895 35.6736 89.0895 21.2954C89.0895 8.93141 89.2285 6.8476 90.1314 6.8476C90.6871 6.8476 91.1733 6.5003 91.1733 6.15299C91.1733 5.73623 85.8249 5.45839 76.5867 5.45839C67.3484 5.45839 62 5.73623 62 6.15299Z" fill="white"/>
<path d="M102.634 20.3924C97.4939 32.8258 96.1741 35.4653 94.8544 35.7431C91.937 36.5072 93.1873 37.4102 97.0771 37.4102C99.1609 37.4102 100.897 37.0629 100.897 36.7156C100.897 36.2988 100.481 36.0209 99.925 36.0209C98.119 36.0209 97.9801 34.7012 99.4388 31.506L100.828 28.3803H106.315H111.803L112.984 31.506C114.72 35.9515 116.873 37.4102 121.666 37.4102C125.486 37.4102 125.486 37.3407 124.097 36.1599C123.264 35.5347 119.999 28.5887 116.526 20.184C113.122 12.1266 109.997 5.45839 109.58 5.45839C109.163 5.45839 106.037 12.196 102.634 20.3924ZM108.816 21.3648C109.788 23.8654 110.622 26.0881 110.622 26.4354C110.622 26.7133 108.608 26.9911 106.107 26.9911C103.606 26.9911 101.592 26.8522 101.592 26.6438C101.592 25.3241 106.107 15.9469 106.524 16.3637C106.802 16.6415 107.843 18.9337 108.816 21.3648Z" fill="white"/>
<path d="M126.598 6.08377C126.598 6.50053 127.223 6.84783 127.987 6.84783C129.307 6.84783 129.376 7.33405 129.376 21.4345C129.376 33.6595 129.237 36.0212 128.404 36.0212C127.848 36.0212 127.153 36.299 126.945 36.7158C126.667 37.1325 128.959 37.4104 133.335 37.3409C138.753 37.3409 139.795 37.1325 138.614 36.5769C137.156 35.8823 137.017 35.3266 137.017 30.3254V24.9075H140.698C149.103 24.9075 152.993 21.9207 152.993 15.5998C152.993 11.2238 151.326 8.6538 147.505 6.98675C144.31 5.667 126.598 4.83348 126.598 6.08377ZM143.407 8.93164C145.421 10.946 145.491 11.2933 145.213 15.8777C144.935 21.504 143.685 23.3099 139.587 24.0045L137.017 24.4213V15.5998V6.84783H139.17C140.629 6.84783 141.948 7.54243 143.407 8.93164Z" fill="white"/>
<path d="M157.16 6.15299C157.16 6.5003 157.785 6.8476 158.549 6.8476C159.869 6.8476 159.939 7.33382 159.939 21.4343C159.939 33.6593 159.8 36.0209 158.966 36.0209C158.41 36.0209 157.716 36.2988 157.507 36.7156C157.23 37.1323 159.383 37.4102 163.551 37.4102C169.038 37.3407 169.802 37.2018 168.829 36.4377C167.788 35.6736 167.579 34.3539 167.579 28.4498V21.4343H169.524C171.33 21.4343 171.538 21.7816 173.692 28.3803C176.401 36.5072 177.304 37.4102 182.86 37.4102C186.195 37.3407 186.542 37.2712 185.431 36.4377C184.805 35.9515 183.277 32.7563 182.166 29.4222C179.804 22.4067 178.693 20.948 175.498 20.3229C173.344 19.9061 173.275 19.8367 174.178 18.378C174.664 17.614 175.567 15.0439 176.192 12.8212C176.748 10.529 177.72 8.2368 178.276 7.61166C179.318 6.63922 179.387 6.8476 179.387 9.83439C179.387 12.8212 179.526 13.099 180.985 13.099C182.791 13.099 184.944 11.1541 184.944 9.55655C184.944 7.40328 182.86 5.45839 180.499 5.45839C177.512 5.45839 176.331 6.91706 174.873 12.4044C173.483 17.475 171.608 20.0451 169.177 20.0451C167.649 20.0451 167.579 19.9061 167.579 13.4463C167.579 8.02842 167.788 6.8476 168.621 6.8476C169.177 6.8476 169.663 6.5003 169.663 6.15299C169.663 5.73623 167.093 5.45839 163.412 5.45839C159.73 5.45839 157.16 5.73623 157.16 6.15299Z" fill="white"/>
<path d="M84.0885 41.53C83.7412 41.8079 83.5329 42.6414 83.5329 43.336C83.5329 44.1 83.0466 44.5863 82.2826 44.5863C80.2682 44.5863 79.3652 46.0449 79.3652 49.3096C79.3652 52.0185 79.5736 52.4353 81.449 53.1299C82.6993 53.6161 83.5329 54.4496 83.5329 55.1442C83.5329 55.8388 83.8802 56.3945 84.2275 56.3945C84.6442 56.3945 84.9221 55.7694 84.9221 55.0053C84.9221 54.1023 85.4083 53.6161 86.2418 53.6161C87.0059 53.6161 88.1172 52.9215 88.6729 52.088C90.8262 48.9623 89.437 44.5863 86.3113 44.5863C85.4083 44.5863 84.9221 44.0306 84.7831 42.7803C84.6442 41.8079 84.3664 41.2522 84.0885 41.53ZM83.5329 49.1012C83.5329 51.7407 83.3245 52.2269 82.2131 52.2269C80.6155 52.2269 79.782 50.0736 80.3377 47.6425C80.6155 46.6006 81.3101 45.9755 82.1436 45.9755C83.3245 45.9755 83.5329 46.4617 83.5329 49.1012ZM88.0478 49.1012C88.0478 51.4628 87.8394 51.8796 86.5197 52.088C85.061 52.2964 84.9221 52.0185 84.9221 49.1012C84.9221 46.1839 85.061 45.906 86.5197 46.1144C87.8394 46.3228 88.0478 46.7395 88.0478 49.1012Z" fill="white"/>
<path d="M71.9337 45.0726C70.3361 45.6977 71.0307 46.3229 73.2534 46.3229C74.9204 46.3229 75.5456 46.6702 75.754 47.6426C75.9624 48.6151 75.754 48.8234 74.9204 48.5456C74.2953 48.2678 73.045 48.4067 72.0726 48.754C69.0858 49.8654 70.2666 53.6162 73.5312 53.6162C76.5875 53.6162 77.2821 52.9216 77.2821 49.7959C77.2821 45.6283 75.1288 43.7528 71.9337 45.0726ZM75.8929 50.8378C75.8929 51.9492 75.4067 52.227 73.8091 52.227C72.2115 52.227 71.7253 51.9492 71.7253 50.8378C71.7253 49.7264 72.2115 49.4486 73.8091 49.4486C75.4067 49.4486 75.8929 49.7264 75.8929 50.8378Z" fill="white"/>
<path d="M92.2852 46.1142C91.6601 46.9478 91.1738 48.337 91.1738 49.101C91.1738 52.5741 95.1331 54.9357 97.2863 52.7824C98.4672 51.6016 98.3282 50.4902 97.1474 51.5322C95.7582 52.6435 92.9798 52.1573 92.702 50.6292C92.4936 49.6567 92.9798 49.4483 95.6193 49.4483C98.3282 49.4483 98.8145 49.24 98.8145 48.1286C98.8145 44.7945 94.1606 43.4053 92.2852 46.1142ZM97.2863 47.5035C97.4947 48.5454 97.0085 48.7537 95.0636 48.7537C92.702 48.7537 91.799 47.7118 93.0493 46.3921C93.9522 45.4891 97.078 46.3226 97.2863 47.5035Z" fill="white"/>
<path d="M62 49.1011C62 51.1849 62.3473 52.9214 62.6946 52.9214C63.1114 52.9214 63.3892 52.1573 63.3892 51.1849C63.3892 49.9346 63.7365 49.4484 64.7784 49.4484C65.6119 49.4484 66.5149 50.143 67.0011 51.1849C67.4179 52.1573 68.0431 52.9214 68.4598 52.9214C68.8071 52.9214 68.4598 51.8795 67.6957 50.5597L66.3065 48.1981L67.7652 46.7394C68.5987 45.9754 68.946 45.2807 68.5293 45.2807C68.1125 45.2807 67.2095 45.9059 66.5149 46.67C65.8203 47.434 64.8479 48.0592 64.2922 48.0592C63.806 48.0592 63.3892 47.434 63.3892 46.67C63.3892 45.9059 63.1114 45.2807 62.6946 45.2807C62.3473 45.2807 62 47.0173 62 49.1011Z" fill="white"/>
</svg>
