<svg width="116" height="116" viewBox="0 0 116 116" fill="none" xmlns="http://www.w3.org/2000/svg">
<path d="M45.8764 49.4452C45.1592 49.7069 44.7855 50.2679 44.7804 51.0905L44.7754 51.5286L45.3915 52.8267C46.6289 55.4175 47.8713 57.4742 49.351 59.3599C49.9167 60.0811 51.6641 61.9241 52.3762 62.5491C53.4267 63.4679 54.8711 64.547 55.4923 64.8836C56.5175 65.4284 57.8357 65.4178 58.8609 64.8462C59.5175 64.4829 60.0376 63.8632 60.2498 63.1901C60.3407 62.9017 60.3558 62.7307 60.3558 61.7905C60.3558 60.6367 60.3912 60.439 60.6134 60.2734C60.7598 60.1666 61.0578 60.1612 61.1992 60.2681C61.2548 60.3108 62.0224 61.3204 62.9063 62.5117C63.7901 63.703 64.6133 64.7714 64.7345 64.8889C65.1537 65.2789 65.2345 65.2896 67.3758 65.2896C69.0778 65.2896 69.295 65.2789 69.5324 65.1934C70.0879 64.9904 70.5374 64.3654 70.5929 63.7243C70.6485 63.1047 70.6232 63.0619 68.6687 60.1933C67.6839 58.7509 66.8658 57.5116 66.8506 57.4368C66.8304 57.362 66.8506 57.2285 66.886 57.1323C66.9466 56.9881 68.0678 55.316 69.694 52.9495C70.295 52.0735 70.4566 51.7957 70.5374 51.4965C70.7445 50.7486 70.4111 49.9367 69.7394 49.552L69.4213 49.3704H67.3758H65.3304L65.0779 49.504C64.9416 49.5734 64.7345 49.7337 64.6234 49.8565C64.5123 49.9794 63.7446 51.2561 62.9113 52.6878C62.083 54.1248 61.3356 55.3641 61.2598 55.4443C61.0881 55.6205 60.8003 55.6472 60.6134 55.5084C60.3659 55.3214 60.3558 55.2199 60.3558 52.9015C60.3558 50.8662 60.3508 50.7219 60.2548 50.4495C60.073 49.9313 59.6639 49.552 59.1437 49.4025C58.9771 49.3544 58.265 49.3437 56.4923 49.3544L54.0681 49.3704L53.7853 49.5093C52.7752 50.0114 52.5277 51.4217 53.3055 52.2444C53.4065 52.3512 53.5782 52.4901 53.6893 52.5489L53.8913 52.6557V53.8256C53.8913 54.8566 53.8812 55.0009 53.8105 55.0276C53.6944 55.0757 53.6338 55.0115 53.1136 54.2744C52.4015 53.2701 51.8611 52.2658 51.2702 50.8288C50.9874 50.145 50.8156 49.8672 50.548 49.6749C50.1035 49.3544 50.0328 49.3437 47.9925 49.3437C46.341 49.349 46.1087 49.3597 45.8764 49.4452ZM49.947 50.6525C50.0278 50.7433 50.2551 51.1974 50.4621 51.6835C51.0429 53.0671 51.6591 54.1729 52.4166 55.1932C52.9722 55.9411 53.1792 56.1067 53.6388 56.1654C54.1186 56.2242 54.5731 55.9624 54.8257 55.4816L54.9772 55.1932L54.9923 53.425L55.0075 51.6568L54.6388 51.6301C54.4368 51.614 54.2196 51.5713 54.159 51.5339C53.8358 51.3202 53.8509 50.754 54.1843 50.567C54.2853 50.5082 54.765 50.4922 56.5933 50.4922C59.0326 50.4922 59.068 50.4976 59.2094 50.7593C59.2548 50.8341 59.275 51.5499 59.2952 53.1632C59.3205 55.3695 59.3255 55.471 59.4265 55.706C59.5528 55.9945 59.8407 56.347 60.073 56.502C60.1639 56.5607 60.3811 56.6462 60.5578 56.6943C61.1285 56.8492 61.7043 56.6462 62.1083 56.1601C62.2144 56.0319 62.9921 54.7338 63.8355 53.2754C65.1183 51.0638 65.4012 50.6151 65.5375 50.5456C65.6739 50.4815 65.9668 50.4655 67.3152 50.4655C68.2041 50.4655 68.997 50.4815 69.0879 50.4976C69.3758 50.5617 69.5677 50.8662 69.5122 51.176C69.5021 51.2401 68.699 52.4527 67.7344 53.863C66.7698 55.2786 65.9365 56.5394 65.886 56.6676C65.7446 56.9988 65.7496 57.6719 65.891 57.9977C65.9516 58.1313 66.785 59.3866 67.7445 60.7916C68.7041 62.1912 69.5021 63.4092 69.5223 63.4946C69.5425 63.5961 69.5223 63.7137 69.4768 63.8152C69.3101 64.1464 69.3455 64.141 67.386 64.141C66.2698 64.141 65.5678 64.1197 65.5072 64.0876C65.4517 64.0555 64.6739 63.0406 63.7699 61.8226C62.8659 60.61 62.0325 59.5309 61.9164 59.424C61.3356 58.8952 60.4215 58.9272 59.8306 59.4988C59.371 59.9422 59.3306 60.1025 59.2952 61.5502C59.2649 62.9444 59.2498 63.0085 58.866 63.4359C58.4316 63.9327 57.7751 64.1731 56.9771 64.1303C56.366 64.0983 56.068 63.9701 55.2953 63.4305C52.058 61.1709 49.4722 58.2114 47.4319 54.4453C46.7349 53.1632 45.8511 51.2828 45.8461 51.0745C45.841 50.8395 45.942 50.6471 46.1339 50.551C46.2703 50.4762 46.543 50.4655 48.043 50.4815L49.8005 50.4922L49.947 50.6525Z" fill="white"/>
<path d="M102.792 58.8764L102.13 63.3646C102.012 64.1633 102.014 64.8517 102.136 65.43C102.27 66.01 102.479 66.4914 102.764 66.8744C103.048 67.2574 103.389 67.5512 103.785 67.7557C104.191 67.974 104.609 68.1147 105.038 68.178C105.718 68.2781 106.282 68.2091 106.731 67.9708C107.179 67.7444 107.54 67.4444 107.814 67.0707C108.088 66.6971 108.293 66.3009 108.427 65.8823C108.562 65.4637 108.655 65.1242 108.706 64.8636L108.777 64.8742C108.716 65.2914 108.735 65.6962 108.836 66.0886C108.948 66.4828 109.109 66.8354 109.319 67.1465C109.539 67.4712 109.804 67.7416 110.113 67.9577C110.434 68.1756 110.785 68.3126 111.167 68.3689C111.501 68.4181 111.851 68.3966 112.218 68.3045C112.584 68.2124 112.933 68.0385 113.263 67.7826C113.591 67.5387 113.879 67.1974 114.126 66.7589C114.384 66.334 114.558 65.8116 114.65 65.1917L115.309 60.7214L102.792 58.8764ZM103.339 60.6196L108.81 61.4261L108.52 63.393C108.434 63.9772 108.282 64.4724 108.064 64.8787C107.846 65.285 107.585 65.6059 107.283 65.8414C106.978 66.0889 106.643 66.2527 106.278 66.3328C105.912 66.4249 105.537 66.4429 105.156 66.3866C104.739 66.3251 104.381 66.1932 104.082 65.9908C103.781 65.8003 103.536 65.5632 103.346 65.2794C103.156 64.9957 103.027 64.6722 102.959 64.3089C102.901 63.9593 102.9 63.5938 102.956 63.2123L103.339 60.6196ZM109.597 61.5421L114.282 62.2327L113.96 64.4142C113.892 64.8791 113.768 65.2628 113.59 65.5653C113.409 65.8798 113.197 66.1225 112.953 66.2936C112.706 66.4765 112.439 66.5954 112.151 66.6504C111.863 66.7054 111.581 66.7126 111.307 66.6722C110.962 66.6212 110.65 66.5023 110.373 66.3153C110.095 66.1402 109.866 65.9117 109.689 65.6298C109.509 65.3597 109.384 65.055 109.312 64.7155C109.238 64.388 109.228 64.0455 109.281 63.6878L109.597 61.5421Z" fill="white"/>
<path d="M100.577 71.9545L99.8476 73.4285L103.832 75.4012L104.886 78.2019L96.8083 79.5676L95.9743 81.2522L105.425 79.6386L107.778 85.9261L108.179 85.1162L104.804 75.8824L111.186 79.0419L111.916 77.5679L100.577 71.9545Z" fill="white"/>
<path d="M99.2306 88.6823C98.7675 88.1915 98.1793 87.7525 97.466 87.3652C96.7523 86.995 95.9705 86.7634 95.1208 86.6705C94.2711 86.5776 93.3863 86.667 92.4663 86.9385C91.5546 87.2189 90.6649 87.7684 89.7973 88.5871C89.2101 89.1411 88.746 89.7115 88.405 90.2982C88.0635 90.902 87.8201 91.5044 87.6748 92.1054C87.5207 92.7147 87.4523 93.3093 87.4695 93.8895C87.495 94.4784 87.5855 95.0308 87.7409 95.5468C87.8959 96.0798 88.0991 96.5673 88.3505 97.0093C88.5931 97.4596 88.8674 97.8469 89.1734 98.1712C89.6365 98.662 90.2293 99.0884 90.9518 99.4503C91.6826 99.8211 92.4816 100.045 93.3488 100.121C94.2161 100.197 95.1187 100.083 96.0567 99.7778C96.9942 99.4896 97.9011 98.9321 98.7776 98.1052C99.6452 97.2866 100.246 96.4303 100.578 95.5364C100.911 94.6426 101.056 93.7688 101.013 92.9152C100.977 92.0703 100.792 91.2764 100.455 90.5335C100.11 89.799 99.7019 89.1819 99.2306 88.6823ZM97.9422 89.8979C98.521 90.5114 98.9582 91.1592 99.2538 91.8411C99.5488 92.5402 99.7079 93.2267 99.7309 93.9008C99.7452 94.5831 99.6239 95.2359 99.3671 95.8592C99.1186 96.4913 98.7314 97.0554 98.2055 97.5516C97.6884 98.0394 97.1028 98.3932 96.4485 98.6129C95.7938 98.8495 95.1219 98.9451 94.4328 98.8995C93.7349 98.8621 93.0413 98.68 92.3518 98.3531C91.6706 98.035 91.0406 97.5691 90.4618 96.9556C89.8829 96.3421 89.4503 95.6817 89.164 94.9744C88.886 94.2759 88.7486 93.5772 88.7519 92.8783C88.7464 92.1877 88.8767 91.5181 89.1427 90.8695C89.4083 90.2379 89.7996 89.6782 90.3167 89.1903C90.8426 88.6942 91.4241 88.336 92.0613 88.1159C92.7067 87.9045 93.3696 87.8257 94.05 87.8796C94.7216 87.9418 95.3936 88.136 96.066 88.4625C96.738 88.8059 97.3633 89.2844 97.9422 89.8979Z" fill="white"/>
<path d="M81.771 102.988L74.7421 105.807L72.4006 99.9691L70.874 100.581L75.584 112.324L77.1106 111.712L75.0516 106.579L82.0805 103.759L84.1395 108.893L85.666 108.28L80.956 96.5375L79.4295 97.1498L81.771 102.988Z" fill="white"/>
<path d="M60.4225 102.316L60.8723 113.966L56.0319 114.153L56.0703 115.146L67.3945 114.709L67.3562 113.715L62.5158 113.902L62.066 102.253L60.4225 102.316Z" fill="white"/>
<path d="M43.1838 103.913L42.5905 99.8482L40.9111 99.3449L42.9235 113.156L43.7892 113.415L52.5459 102.832L51.7495 102.593L49.1571 105.703L43.1838 103.913ZM43.3139 104.801L48.5946 106.383L44.353 111.471L44.2837 111.45L43.3139 104.801Z" fill="white"/>
<path d="M36.413 97.4943L35.0794 96.5316L32.477 100.137L29.5409 100.715L29.5251 92.5222L28.0009 91.422L28.035 101.01L21.4457 102.294L22.1785 102.823L31.8423 101.016L27.6742 106.79L29.0078 107.753L36.413 97.4943Z" fill="white"/>
<path d="M22.02 84.7324L12.5924 91.5903L9.74292 87.6731L8.93902 88.2578L15.6055 97.4224L16.4094 96.8376L13.5599 92.9204L22.9875 86.0625L22.02 84.7324Z" fill="white"/>
<path d="M4.97461 81.0298L16.9331 76.8982L14.2653 69.1764L13.3257 69.501L15.4564 75.6682L10.4851 77.3858L8.65537 72.0898L7.83535 72.3732L9.66507 77.6691L5.37709 79.1506L3.24635 72.9834L2.30676 73.308L4.97461 81.0298Z" fill="white"/>
<path d="M12.5561 57.3278L13.1141 52.8255C13.2134 52.0243 13.1955 51.3361 13.0604 50.7608C12.9133 50.1841 12.6931 49.7075 12.3998 49.3312C12.1065 48.9549 11.7594 48.669 11.3587 48.4736C10.9474 48.2648 10.5266 48.1337 10.0961 48.0804C9.41448 47.9959 8.85186 48.0779 8.40822 48.3265C7.96608 48.5631 7.61218 48.8713 7.34654 49.2512C7.0809 49.6311 6.88553 50.0319 6.76042 50.4535C6.63532 50.8751 6.55048 51.2167 6.50591 51.4783L6.43416 51.4694C6.48604 51.0509 6.45722 50.6466 6.34771 50.2566C6.22625 49.8652 6.057 49.5164 5.83997 49.2102C5.61246 48.8906 5.34167 48.6263 5.02759 48.4174C4.70155 48.207 4.34721 48.0781 3.96454 48.0307C3.62972 47.9892 3.28002 48.0187 2.91544 48.1192C2.55087 48.2197 2.20656 48.4017 1.88251 48.6651C1.55994 48.9165 1.28007 49.2643 1.0429 49.7084C0.795244 50.1391 0.632882 50.6654 0.555809 51.2872L0 55.7715L12.5561 57.3278ZM11.9691 55.5976L6.48034 54.9173L6.7249 52.9442C6.79752 52.3583 6.93824 51.8597 7.14705 51.4485C7.35587 51.0373 7.60886 50.7104 7.90603 50.468C8.20468 50.2136 8.53555 50.0421 8.89864 49.9536C9.26321 49.8531 9.63683 49.8265 10.0195 49.8739C10.438 49.9258 10.7991 50.0495 11.1027 50.245C11.4078 50.4285 11.6584 50.6599 11.8544 50.9392C12.0505 51.2185 12.1869 51.5389 12.2635 51.9005C12.3296 52.2487 12.3389 52.6141 12.2915 52.9967L11.9691 55.5976ZM5.6911 54.8195L0.991553 54.237L1.26279 52.0487C1.32059 51.5823 1.43527 51.1958 1.60683 50.8893C1.77987 50.5708 1.98661 50.3232 2.22706 50.1466C2.46898 49.958 2.73339 49.8329 3.02029 49.7714C3.30718 49.7098 3.58815 49.696 3.86318 49.7301C4.20997 49.7731 4.52395 49.8849 4.80511 50.0654C5.08776 50.234 5.32115 50.4572 5.50527 50.735C5.69087 51.0009 5.82346 51.3026 5.90302 51.6403C5.98407 51.9661 6.00236 52.3083 5.95789 52.667L5.6911 54.8195Z" fill="white"/>
<path d="M14.3988 44.3824L15.09 42.8899L11.0553 41.0214L9.92899 38.2491L17.9686 36.6738L18.7585 34.9681L9.35265 36.8269L6.83714 30.6027L6.45738 31.4227L10.0712 40.5657L3.60914 37.5732L2.91797 39.0657L14.3988 44.3824Z" fill="white"/>
<path d="M15.2836 27.6155C15.759 28.0944 16.3581 28.5183 17.081 28.8873C17.804 29.2393 18.5913 29.4509 19.4431 29.5222C20.2949 29.5934 21.1772 29.4816 22.0899 29.1867C22.9942 28.8833 23.8696 28.3113 24.7162 27.4709C25.2892 26.9021 25.7386 26.3201 26.0645 25.7248C26.3905 25.1125 26.6185 24.5041 26.7485 23.8997C26.8871 23.2867 26.9404 22.6905 26.9084 22.1109C26.8679 21.5229 26.7634 20.9729 26.5949 20.4611C26.4264 19.9322 26.2109 19.45 25.9483 19.0145C25.6943 18.5705 25.4103 18.1904 25.0962 17.874C24.6208 17.3951 24.0173 16.9839 23.2858 16.6404C22.5458 16.2884 21.7413 16.0853 20.8725 16.031C20.0036 15.9767 19.1042 16.114 18.1742 16.4429C17.2444 16.7548 16.3519 17.3352 15.4968 18.1842C14.6502 19.0246 14.0719 19.8959 13.7619 20.7979C13.4519 21.6999 13.3294 22.5771 13.3944 23.4294C13.451 24.2731 13.6569 25.062 14.0121 25.796C14.3758 26.5216 14.7997 27.1281 15.2836 27.6155ZM16.5406 26.3676C15.9463 25.769 15.4928 25.1326 15.18 24.4583C14.8673 23.767 14.6908 23.0847 14.6507 22.4115C14.619 21.7297 14.7237 21.074 14.9645 20.4444C15.1969 19.8062 15.5696 19.2324 16.0827 18.7231C16.5872 18.2222 17.1637 17.8537 17.8121 17.6174C18.4606 17.3642 19.1299 17.2516 19.8199 17.2797C20.5185 17.2992 21.2166 17.4637 21.9141 17.7729C22.6032 18.0737 23.2449 18.5233 23.8391 19.1219C24.4334 19.7205 24.8826 20.3697 25.1868 21.0695C25.4825 21.7607 25.6376 22.4557 25.6521 23.1544C25.6752 23.8446 25.5619 24.5173 25.3125 25.1725C25.0631 25.8106 24.6861 26.3801 24.1816 26.881C23.6685 27.3904 23.0963 27.7632 22.4649 27.9995C21.825 28.2272 21.1644 28.3228 20.4829 28.2862C19.8099 28.2412 19.1332 28.064 18.4527 27.7548C17.7722 27.4286 17.1349 26.9662 16.5406 26.3676Z" fill="white"/>
<path d="M32.3799 12.807L39.3438 9.8308L41.8157 15.6147L43.3281 14.9683L38.356 3.33409L36.8435 3.98047L39.0171 9.06627L32.0532 12.0425L29.8796 6.95665L28.3672 7.60303L33.3393 19.2372L34.8518 18.5908L32.3799 12.807Z" fill="white"/>
<path d="M53.7159 12.9267L52.9967 1.29087L57.8314 0.992034L57.7701 -0.000168203L46.459 0.698975L46.5203 1.69118L51.355 1.39234L52.0743 13.0282L53.7159 12.9267Z" fill="white"/>
<path d="M71.0987 10.9206L71.7842 14.9708L73.4746 15.4358L71.1489 1.67399L70.2776 1.43431L61.7636 12.2144L62.5652 12.4349L65.0863 9.26677L71.0987 10.9206ZM70.9484 10.0357L65.6331 8.57362L69.7581 3.39095L69.8278 3.41013L70.9484 10.0357Z" fill="white"/>
<path d="M77.7621 17.0197L79.12 17.948L81.6292 14.2774L84.5496 13.6246L84.7751 21.8139L86.3269 22.8747L86.0474 13.2911L92.6017 11.8383L91.8556 11.3283L82.2412 13.3821L86.2602 7.50318L84.9023 6.57495L77.7621 17.0197Z" fill="white"/>
<path d="M92.7165 29.6159L101.992 22.5533L104.926 26.4072L105.717 25.8049L98.8516 16.7886L98.0607 17.3908L100.995 21.2447L91.72 28.3073L92.7165 29.6159Z" fill="white"/>
<path d="M109.83 32.8972L97.9678 37.2975L100.809 44.9572L101.741 44.6114L99.4719 38.4939L104.403 36.6646L106.352 41.9179L107.165 41.6162L105.217 36.3629L109.47 34.7851L111.739 40.9026L112.671 40.5569L109.83 32.8972Z" fill="white"/>
</svg>
